<?xml version="1.0" encoding="UTF-8"?>
<svg version="1.1" viewBox="0 0 400 97.453" xmlns="http://www.w3.org/2000/svg">
<g fill-rule="evenodd">
<path d="m88.5 26.5c0 0.472 0.037 0.5 0.667 0.5 0.366 0 0.666 0.075 0.666 0.167 0 0.091 0.193 0.166 0.429 0.166 0.482 0 0.905 0.345 0.905 0.738 0 0.144 0.075 0.262 0.166 0.262 0.111 0 0.167 6.778 0.167 20 0 13.223-0.056 20-0.167 20-0.091 0-0.166 0.15-0.166 0.334 0 0.183-0.075 0.333-0.167 0.333s-0.167 0.15-0.167 0.333c0 0.223-0.111 0.334-0.333 0.334-0.183 0-0.333 0.075-0.333 0.166 0 0.092-0.375 0.167-0.834 0.167-0.814 0-0.833 0.011-0.833 0.5v0.5h14.417c9.5 0 14.416-0.057 14.416-0.167 0-0.095 0.5-0.166 1.167-0.166s1.167-0.072 1.167-0.167c0-0.092 0.3-0.167 0.666-0.167 0.367 0 0.667-0.075 0.667-0.166 0-0.092 0.3-0.167 0.667-0.167 0.366 0 0.666-0.075 0.666-0.167 0-0.091 0.146-0.166 0.324-0.166s0.37-0.075 0.426-0.167c0.057-0.092 0.272-0.167 0.479-0.167 0.206 0 0.536-0.15 0.733-0.333s0.473-0.333 0.615-0.333c0.141 0 0.257-0.075 0.257-0.167s0.15-0.167 0.333-0.167 0.333-0.075 0.333-0.166c0-0.092 0.12-0.167 0.267-0.167 0.146 0 0.476-0.225 0.733-0.5s0.551-0.5 0.652-0.5c0.209 0 3.682-3.423 3.682-3.628 0-0.072 0.15-0.24 0.333-0.372s0.333-0.306 0.333-0.387c0-0.08 0.263-0.409 0.584-0.73 0.321-0.32 0.583-0.688 0.583-0.816 0-0.129 0.075-0.234 0.167-0.234 0.091 0 0.166-0.133 0.166-0.296s0.15-0.405 0.334-0.537c0.183-0.132 0.333-0.374 0.333-0.537s0.075-0.296 0.167-0.296c0.091 0 0.166-0.15 0.166-0.334 0-0.183 0.075-0.333 0.167-0.333s0.167-0.15 0.167-0.333c0-0.184 0.075-0.334 0.166-0.334 0.092 0 0.167-0.15 0.167-0.333s0.075-0.333 0.167-0.333c0.091 0 0.166-0.225 0.166-0.5s0.075-0.5 0.167-0.5 0.167-0.183 0.167-0.407 0.075-0.453 0.166-0.51c0.092-0.057 0.167-0.286 0.167-0.51s0.075-0.407 0.167-0.407c0.091 0 0.166-0.3 0.166-0.666 0-0.367 0.075-0.667 0.167-0.667s0.167-0.375 0.167-0.833c0-0.459 0.075-0.834 0.166-0.834 0.101 0 0.167-0.691 0.167-1.74 0-0.98 0.073-1.785 0.167-1.843 0.091-0.057 0.166-0.324 0.166-0.593 0-0.27-0.075-0.49-0.166-0.49-0.101 0-0.167-0.723-0.167-1.834s-0.066-1.833-0.167-1.833c-0.091 0-0.166-0.338-0.166-0.75 0-0.413-0.075-0.75-0.167-0.75s-0.167-0.3-0.167-0.667c0-0.366-0.075-0.666-0.166-0.666-0.092 0-0.167-0.225-0.167-0.5s-0.075-0.5-0.167-0.5c-0.091 0-0.166-0.15-0.166-0.334 0-0.183-0.075-0.333-0.167-0.333s-0.167-0.15-0.167-0.333c0-0.184-0.075-0.334-0.166-0.334-0.092 0-0.167-0.15-0.167-0.333s-0.075-0.333-0.167-0.333c-0.091 0-0.166-0.15-0.166-0.334 0-0.183-0.075-0.333-0.167-0.333s-0.167-0.133-0.167-0.297c0-0.163-0.15-0.404-0.333-0.536s-0.333-0.344-0.333-0.47c0-0.127-0.225-0.44-0.5-0.697s-0.5-0.545-0.5-0.64c0-0.239-2.269-2.527-2.506-2.527-0.107 0-0.404-0.225-0.661-0.5s-0.57-0.5-0.697-0.5c-0.126 0-0.338-0.15-0.47-0.333s-0.373-0.333-0.536-0.333c-0.164 0-0.297-0.075-0.297-0.167s-0.15-0.167-0.333-0.167c-0.184 0-0.334-0.075-0.334-0.166 0-0.092-0.15-0.167-0.333-0.167s-0.333-0.075-0.333-0.167c0-0.091-0.15-0.166-0.334-0.166-0.183 0-0.333-0.075-0.333-0.167s-0.15-0.167-0.333-0.167c-0.184 0-0.334-0.075-0.334-0.166 0-0.092-0.187-0.167-0.416-0.167s-0.417-0.075-0.417-0.167c0-0.091-0.225-0.166-0.5-0.166s-0.5-0.075-0.5-0.167-0.3-0.167-0.667-0.167c-0.366 0-0.666-0.075-0.666-0.166 0-0.092-0.3-0.167-0.667-0.167s-0.667-0.075-0.667-0.167-0.444-0.166-1-0.166c-0.555 0-1-0.074-1-0.167 0-0.099-0.607-0.167-1.49-0.167-0.819 0-1.536-0.075-1.593-0.166-0.067-0.109-4.724-0.167-13.427-0.167h-13.323v0.5m162.67 0c0 0.472 0.037 0.5 0.666 0.5 0.367 0 0.667 0.075 0.667 0.167 0 0.091 0.191 0.166 0.424 0.166 0.698 0 1.243 0.691 1.243 1.576 0 0.417 0.075 0.758 0.166 0.758 0.11 0 0.167 6.5 0.167 19.166 0 12.667-0.057 19.167-0.167 19.167-0.091 0-0.166 0.19-0.166 0.422 0 0.709-1.014 1.578-1.84 1.578-0.71 0-1.16 0.286-1.16 0.738 0 0.233 0.664 0.262 6.083 0.262h6.083v-0.5c0-0.489-0.018-0.5-0.833-0.5-0.458 0-0.833-0.075-0.833-0.167 0-0.091-0.118-0.166-0.262-0.166-0.337 0-0.738-0.402-0.738-0.738 0-0.144-0.075-0.262-0.167-0.262-0.109 0-0.167-3.389-0.167-9.834v-9.833h23.667v9.833c0 6.445-0.057 9.834-0.167 9.834-0.091 0-0.166 0.118-0.166 0.262 0 0.336-0.402 0.738-0.738 0.738-0.144 0-0.262 0.075-0.262 0.166 0 0.092-0.375 0.167-0.834 0.167-0.814 0-0.833 0.011-0.833 0.5v0.5h6.083c5.42 0 6.084-0.029 6.084-0.262 0-0.452-0.451-0.738-1.161-0.738-1.049 0-1.839-0.853-1.839-1.985 0-0.456-0.075-0.875-0.167-0.932-0.109-0.067-0.167-6.443-0.167-18.583s0.058-18.516 0.167-18.583c0.092-0.057 0.167-0.477 0.167-0.934 0-0.916 0.511-1.65 1.149-1.65 0.182 0 0.377-0.075 0.434-0.166 0.057-0.092 0.399-0.167 0.76-0.167 0.619 0 0.657-0.029 0.657-0.5v-0.5h-12.167v0.5c0 0.472 0.037 0.5 0.667 0.5 0.366 0 0.666 0.075 0.666 0.167 0 0.091 0.193 0.166 0.429 0.166 0.547 0 0.905 0.358 0.905 0.905 0 0.236 0.075 0.429 0.166 0.429 0.109 0 0.167 3.166 0.167 9.166v9.167h-23.667v-18.533l0.567-0.567c0.354-0.354 0.729-0.567 1-0.567 0.238 0 0.433-0.075 0.433-0.166 0-0.092 0.225-0.167 0.5-0.167 0.445 0 0.5-0.056 0.5-0.5v-0.5h-12.166v0.5m-141.92 1.333c0.057 0.092 0.624 0.167 1.26 0.167 0.66 0 1.157 0.072 1.157 0.167 0 0.092 0.444 0.166 1 0.166 0.555 0 1 0.074 1 0.167 0 0.092 0.3 0.167 0.666 0.167 0.367 0 0.667 0.075 0.667 0.166 0 0.092 0.225 0.167 0.5 0.167s0.5 0.075 0.5 0.167c0 0.091 0.225 0.166 0.5 0.166s0.5 0.075 0.5 0.167 0.225 0.167 0.5 0.167 0.5 0.075 0.5 0.166c0 0.092 0.15 0.167 0.333 0.167 0.184 0 0.334 0.075 0.334 0.167 0 0.091 0.15 0.166 0.333 0.166s0.333 0.075 0.333 0.167 0.15 0.167 0.334 0.167c0.183 0 0.333 0.075 0.333 0.166 0 0.092 0.15 0.167 0.333 0.167 0.184 0 0.334 0.075 0.334 0.167 0 0.091 0.15 0.166 0.333 0.166s0.333 0.075 0.333 0.167 0.116 0.167 0.257 0.167c0.142 0 0.418 0.15 0.615 0.333s0.461 0.333 0.587 0.333 0.595 0.375 1.041 0.834c0.447 0.458 0.929 0.833 1.073 0.833 0.143 0 0.261 0.111 0.261 0.247 0 0.254 0.394 0.743 1.625 2.013 0.389 0.402 0.708 0.829 0.708 0.949 0 0.119 0.15 0.326 0.333 0.458 0.184 0.132 0.334 0.357 0.334 0.5s0.15 0.368 0.333 0.5 0.333 0.373 0.333 0.536c0 0.164 0.075 0.297 0.167 0.297s0.167 0.15 0.167 0.333c0 0.184 0.075 0.334 0.166 0.334 0.092 0 0.167 0.15 0.167 0.333s0.075 0.333 0.167 0.333c0.091 0 0.166 0.15 0.166 0.334 0 0.183 0.075 0.333 0.167 0.333s0.167 0.146 0.167 0.323c0 0.178 0.075 0.37 0.166 0.427 0.092 0.057 0.167 0.286 0.167 0.51s0.075 0.407 0.167 0.407c0.091 0 0.166 0.285 0.166 0.633s0.068 0.705 0.151 0.792c0.378 0.397 0.733 7.16 0.391 7.443-0.115 0.095-0.208 0.534-0.208 0.976 0 0.441-0.075 0.849-0.167 0.906-0.092 0.056-0.167 0.361-0.167 0.676 0 0.316-0.075 0.574-0.166 0.574-0.092 0-0.167 0.225-0.167 0.5s-0.075 0.5-0.167 0.5c-0.091 0-0.166 0.225-0.166 0.5s-0.075 0.5-0.167 0.5-0.167 0.15-0.167 0.333-0.075 0.333-0.166 0.333c-0.092 0-0.167 0.15-0.167 0.334 0 0.183-0.075 0.333-0.167 0.333-0.091 0-0.166 0.15-0.166 0.333 0 0.184-0.075 0.334-0.167 0.334s-0.167 0.15-0.167 0.333-0.075 0.333-0.166 0.333c-0.092 0-0.167 0.134-0.167 0.297s-0.15 0.405-0.333 0.537c-0.184 0.132-0.334 0.357-0.334 0.5s-0.15 0.368-0.333 0.5-0.333 0.336-0.333 0.453-0.075 0.213-0.167 0.213-0.167 0.113-0.167 0.25c0 0.138-0.075 0.25-0.166 0.25-0.092 0-0.167 0.077-0.167 0.17 0 0.249-2.457 2.664-2.711 2.664-0.118 0-0.324 0.15-0.456 0.333s-0.334 0.333-0.448 0.333c-0.115 0-0.475 0.15-0.802 0.334-0.326 0.183-0.703 0.333-0.838 0.333s-0.245 0.075-0.245 0.167c0 0.091-0.15 0.166-0.333 0.166-0.184 0-0.334 0.075-0.334 0.167s-0.225 0.167-0.5 0.167-0.5 0.075-0.5 0.166c0 0.092-0.225 0.167-0.5 0.167s-0.5 0.075-0.5 0.167c0 0.091-0.3 0.166-0.666 0.166-0.367 0-0.667 0.075-0.667 0.167s-0.333 0.167-0.74 0.167-0.787 0.075-0.843 0.166c-0.057 0.092-0.619 0.167-1.25 0.167s-1.194 0.075-1.25 0.167c-0.064 0.103-1.527 0.166-3.834 0.166s-3.769-0.063-3.833-0.166c-0.057-0.092-0.586-0.167-1.177-0.167-0.604 0-1.073-0.073-1.073-0.167 0-0.091-0.3-0.166-0.667-0.166-0.366 0-0.666-0.075-0.666-0.167s-0.15-0.167-0.334-0.167c-0.183 0-0.333-0.075-0.333-0.166 0-0.092-0.15-0.167-0.333-0.167-0.184 0-0.334-0.075-0.334-0.167 0-0.091-0.114-0.166-0.254-0.166-0.331 0-1.746-1.415-1.746-1.746 0-0.14-0.075-0.254-0.166-0.254-0.092 0-0.167-0.225-0.167-0.5s-0.075-0.5-0.167-0.5c-0.11 0-0.166-6.278-0.166-18.5v-18.5h5.74c3.647 0 5.778 0.06 5.843 0.166m60.083 5.5c0 0.367 0.075 0.667 0.167 0.667s0.167 0.188 0.167 0.417 0.075 0.416 0.166 0.416c0.092 0 0.167 0.225 0.167 0.5s0.075 0.5 0.167 0.5c0.091 0 0.166 0.15 0.166 0.334 0 0.183 0.075 0.333 0.167 0.333s0.167 0.193 0.167 0.429c0 0.546 0.358 0.904 0.904 0.904 0.468 0 0.656-0.891 0.221-1.046-0.143-0.051-0.081-0.213 0.195-0.514l0.404-0.44h10.109v16.417c0 10.833-0.057 16.417-0.167 16.417-0.091 0-0.166 0.116-0.166 0.257 0 0.546-0.776 1.076-1.576 1.076-0.731 0-0.758 0.018-0.758 0.5v0.5h5.25c4.662 0 5.25-0.029 5.25-0.262 0-0.452-0.45-0.738-1.162-0.738-0.767 0-1.504-0.563-1.504-1.149 0-0.182-0.075-0.378-0.167-0.434-0.109-0.068-0.167-5.697-0.167-16.344v-16.24h5.012c5.653 0 5.488-0.037 5.488 1.238 0 0.708 0.031 0.762 0.429 0.762 0.478 0 0.905-0.343 0.905-0.728 0-0.139 0.075-0.298 0.166-0.355 0.092-0.057 0.167-0.286 0.167-0.51s0.075-0.407 0.167-0.407c0.091 0 0.166-0.225 0.166-0.5s0.075-0.5 0.167-0.5 0.167-0.187 0.167-0.416 0.075-0.417 0.166-0.417c0.092 0 0.167-0.3 0.167-0.667 0-0.629-0.028-0.666-0.5-0.666-0.343 0-0.5 0.082-0.5 0.262 0 0.398-0.359 0.674-1.046 0.803-0.341 0.064-0.621 0.188-0.621 0.276 0 0.297-26.445 0.207-26.56-0.091-0.053-0.138-0.179-0.25-0.28-0.25-0.27 0-0.66-0.437-0.66-0.738 0-0.18-0.156-0.262-0.5-0.262-0.472 0-0.5 0.037-0.5 0.666m-13.666 0.24c0 0.143-0.075 0.26-0.167 0.26s-0.167 0.225-0.167 0.5-0.075 0.5-0.166 0.5c-0.092 0-0.167 0.15-0.167 0.334 0 0.183-0.075 0.333-0.167 0.333-0.091 0-0.166 0.225-0.166 0.5s-0.075 0.5-0.167 0.5-0.167 0.15-0.167 0.333c0 0.184-0.075 0.334-0.166 0.334-0.092 0-0.167 0.225-0.167 0.5s-0.075 0.5-0.167 0.5c-0.091 0-0.166 0.15-0.166 0.333s-0.075 0.333-0.167 0.333-0.167 0.225-0.167 0.5-0.075 0.5-0.166 0.5c-0.092 0-0.167 0.15-0.167 0.334 0 0.183-0.075 0.333-0.167 0.333-0.091 0-0.166 0.225-0.166 0.5s-0.075 0.5-0.167 0.5-0.167 0.146-0.167 0.323c0 0.178-0.075 0.37-0.166 0.427-0.092 0.057-0.167 0.286-0.167 0.51s-0.075 0.407-0.167 0.407c-0.091 0-0.166 0.187-0.166 0.416 0 0.23-0.075 0.417-0.167 0.417s-0.167 0.225-0.167 0.5-0.075 0.5-0.166 0.5c-0.092 0-0.167 0.15-0.167 0.333 0 0.184-0.075 0.334-0.167 0.334-0.091 0-0.166 0.225-0.166 0.5s-0.075 0.5-0.167 0.5-0.167 0.15-0.167 0.333-0.075 0.333-0.166 0.333c-0.092 0-0.167 0.179-0.167 0.397s-0.1 0.479-0.223 0.581c-0.122 0.101-0.325 0.504-0.45 0.895-0.126 0.391-0.363 0.957-0.528 1.257-0.164 0.301-0.299 0.69-0.299 0.866 0 0.175-0.075 0.364-0.167 0.421-0.091 0.057-0.166 0.282-0.166 0.5s-0.075 0.443-0.167 0.5-0.167 0.249-0.167 0.427c0 0.177-0.075 0.323-0.166 0.323-0.092 0-0.167 0.225-0.167 0.5s-0.075 0.5-0.167 0.5c-0.091 0-0.166 0.15-0.166 0.333 0 0.184-0.075 0.334-0.167 0.334s-0.167 0.225-0.167 0.5-0.075 0.5-0.166 0.5c-0.092 0-0.167 0.15-0.167 0.333s-0.075 0.333-0.167 0.333c-0.091 0-0.166 0.225-0.166 0.5s-0.075 0.5-0.167 0.5-0.167 0.15-0.167 0.334c0 0.183-0.075 0.333-0.166 0.333-0.092 0-0.167 0.225-0.167 0.5s-0.075 0.5-0.167 0.5c-0.091 0-0.166 0.15-0.166 0.333 0 0.184-0.075 0.334-0.167 0.334s-0.167 0.225-0.167 0.5-0.075 0.5-0.166 0.5c-0.092 0-0.167 0.145-0.167 0.323s-0.075 0.37-0.167 0.427c-0.091 0.056-0.166 0.281-0.166 0.5 0 0.218-0.075 0.443-0.167 0.5-0.092 0.056-0.167 0.248-0.167 0.426s-0.075 0.324-0.166 0.324c-0.092 0-0.167 0.225-0.167 0.5s-0.075 0.5-0.167 0.5c-0.091 0-0.166 0.15-0.166 0.333s-0.075 0.333-0.167 0.333-0.167 0.225-0.167 0.5-0.075 0.5-0.166 0.5c-0.092 0-0.167 0.15-0.167 0.334 0 0.183-0.075 0.333-0.167 0.333-0.091 0-0.166 0.225-0.166 0.5s-0.075 0.5-0.167 0.5-0.167 0.12-0.167 0.267c0 0.49-1.493 1.733-2.084 1.733-0.524 0-1.082 0.415-1.082 0.805 0 0.142 0.838 0.195 3.083 0.195h3.083v-0.5c0-0.444-0.055-0.5-0.5-0.5-0.444 0-0.5-0.056-0.5-0.5 0-0.275 0.075-0.5 0.167-0.5s0.167-0.15 0.167-0.333c0-0.184 0.075-0.334 0.166-0.334 0.092 0 0.167-0.225 0.167-0.5s0.075-0.5 0.167-0.5c0.091 0 0.166-0.15 0.166-0.333s0.075-0.333 0.167-0.333 0.167-0.225 0.167-0.5 0.075-0.5 0.166-0.5c0.092 0 0.167-0.146 0.167-0.324s0.075-0.37 0.167-0.426c0.091-0.057 0.166-0.282 0.166-0.5 0-0.219 0.075-0.444 0.167-0.5 0.092-0.057 0.167-0.249 0.167-0.427s0.075-0.323 0.166-0.323c0.092 0 0.167-0.225 0.167-0.5s0.075-0.5 0.167-0.5c0.091 0 0.166-0.15 0.166-0.334 0-0.183 0.075-0.333 0.167-0.333s0.167-0.225 0.167-0.5 0.075-0.5 0.166-0.5c0.092 0 0.167-0.15 0.167-0.333 0-0.184 0.075-0.334 0.167-0.334 0.091 0 0.166-0.225 0.166-0.5s0.075-0.5 0.167-0.5 0.167-0.15 0.167-0.333 0.075-0.333 0.166-0.333c0.092 0 0.167-0.225 0.167-0.5s0.075-0.5 0.167-0.5c0.091 0 0.166-0.15 0.166-0.334 0-0.183 0.075-0.333 0.167-0.333s0.167-0.225 0.167-0.5 0.075-0.5 0.166-0.5c0.092 0 0.167-0.135 0.167-0.3 0-0.674 0.202-0.7 5.533-0.7 5.023 0 5.134 7e-3 5.134 0.333 0 0.184 0.075 0.334 0.166 0.334 0.092 0 0.167 0.15 0.167 0.333s0.075 0.333 0.167 0.333c0.091 0 0.166 0.225 0.166 0.5s0.075 0.5 0.167 0.5 0.167 0.15 0.167 0.334c0 0.183 0.075 0.333 0.166 0.333 0.092 0 0.167 0.225 0.167 0.5s0.075 0.5 0.167 0.5c0.091 0 0.166 0.15 0.166 0.333 0 0.184 0.075 0.334 0.167 0.334s0.167 0.225 0.167 0.5 0.075 0.5 0.166 0.5c0.092 0 0.167 0.15 0.167 0.333s0.075 0.333 0.167 0.333c0.091 0 0.166 0.225 0.166 0.5s0.075 0.5 0.167 0.5 0.167 0.15 0.167 0.334c0 0.183 0.075 0.333 0.166 0.333 0.092 0 0.167 0.225 0.167 0.5s0.075 0.5 0.167 0.5c0.091 0 0.166 0.146 0.166 0.323 0 0.178 0.075 0.37 0.167 0.427s0.167 0.246 0.167 0.421c0 0.176 0.15 0.586 0.333 0.912 0.183 0.327 0.333 0.779 0.333 1.005 0 0.227 0.075 0.412 0.167 0.412s0.167 0.15 0.167 0.333c0 0.184 0.075 0.334 0.166 0.334 0.092 0 0.167 0.225 0.167 0.5s0.075 0.5 0.167 0.5c0.452 0 0.171 1.31-0.292 1.364-0.36 0.041-0.47 0.151-0.511 0.511l-0.053 0.458h9.189v-0.5c0-0.472-0.037-0.5-0.667-0.5-0.366 0-0.666-0.075-0.666-0.167 0-0.091-0.116-0.166-0.258-0.166-0.333 0-1.076-0.743-1.076-1.076 0-0.142-0.075-0.258-0.166-0.258-0.092 0-0.167-0.15-0.167-0.333s-0.075-0.333-0.167-0.333c-0.091 0-0.166-0.15-0.166-0.334 0-0.183-0.075-0.333-0.167-0.333s-0.167-0.15-0.167-0.333c0-0.184-0.075-0.334-0.166-0.334-0.092 0-0.167-0.225-0.167-0.5s-0.075-0.5-0.167-0.5c-0.091 0-0.166-0.15-0.166-0.333s-0.075-0.333-0.167-0.333-0.167-0.225-0.167-0.5-0.075-0.5-0.166-0.5c-0.092 0-0.167-0.114-0.167-0.253 0-0.138-0.067-0.382-0.148-0.541-0.082-0.159-0.288-0.608-0.459-0.996-0.17-0.389-0.366-0.707-0.435-0.708-0.068-1e-3 -0.125-0.227-0.125-0.502s-0.075-0.5-0.166-0.5c-0.092 0-0.167-0.15-0.167-0.334 0-0.183-0.075-0.333-0.167-0.333-0.091 0-0.166-0.225-0.166-0.5s-0.075-0.5-0.167-0.5-0.167-0.15-0.167-0.333c0-0.184-0.075-0.334-0.166-0.334-0.092 0-0.167-0.225-0.167-0.5s-0.075-0.5-0.167-0.5c-0.091 0-0.166-0.15-0.166-0.333s-0.075-0.333-0.167-0.333-0.167-0.225-0.167-0.5-0.075-0.5-0.166-0.5c-0.092 0-0.167-0.15-0.167-0.334 0-0.183-0.075-0.333-0.167-0.333-0.091 0-0.166-0.225-0.166-0.5s-0.075-0.5-0.167-0.5-0.167-0.146-0.167-0.323c0-0.178-0.075-0.37-0.166-0.427-0.092-0.057-0.167-0.282-0.167-0.5s-0.075-0.443-0.167-0.5c-0.091-0.057-0.166-0.249-0.166-0.427 0-0.177-0.075-0.323-0.167-0.323s-0.167-0.15-0.167-0.333c0-0.184-0.075-0.334-0.166-0.334-0.092 0-0.167-0.225-0.167-0.5s-0.075-0.5-0.167-0.5c-0.091 0-0.166-0.15-0.166-0.333s-0.075-0.333-0.167-0.333-0.167-0.225-0.167-0.5-0.075-0.5-0.166-0.5c-0.092 0-0.167-0.15-0.167-0.334 0-0.183-0.075-0.333-0.167-0.333-0.091 0-0.166-0.225-0.166-0.5s-0.075-0.5-0.167-0.5-0.167-0.15-0.167-0.333c0-0.184-0.075-0.334-0.166-0.334-0.092 0-0.167-0.225-0.167-0.5s-0.075-0.5-0.167-0.5c-0.091 0-0.166-0.145-0.166-0.323s-0.075-0.37-0.167-0.427c-0.092-0.056-0.167-0.281-0.167-0.5 0-0.218-0.075-0.443-0.166-0.5-0.092-0.056-0.167-0.248-0.167-0.426s-0.075-0.324-0.167-0.324c-0.091 0-0.166-0.183-0.166-0.406 0-0.224-0.075-0.454-0.167-0.51-0.092-0.057-0.167-0.249-0.167-0.427s-0.075-0.323-0.166-0.323c-0.092 0-0.167-0.145-0.167-0.322s-0.113-0.434-0.25-0.571c-0.138-0.138-0.25-0.368-0.25-0.512s-0.075-0.262-0.167-0.262c-0.091 0-0.166-0.225-0.166-0.5s-0.075-0.5-0.167-0.5-0.167-0.15-0.167-0.333c0-0.184-0.075-0.334-0.166-0.334-0.092 0-0.167-0.225-0.167-0.5s-0.075-0.5-0.167-0.5c-0.091 0-0.166-0.15-0.166-0.333s-0.075-0.333-0.167-0.333-0.167-0.225-0.167-0.5-0.069-0.5-0.155-0.5c-0.085 0-0.179-0.169-0.208-0.375-0.067-0.469-1.303-0.677-1.303-0.219m57.119-0.136c-0.066 0.065-0.119 0.256-0.119 0.424s-0.075 0.306-0.167 0.306-0.167 0.15-0.167 0.333-0.075 0.333-0.166 0.333c-0.092 0-0.167 0.225-0.167 0.5s-0.075 0.5-0.167 0.5c-0.091 0-0.166 0.15-0.166 0.334 0 0.183-0.075 0.333-0.167 0.333s-0.167 0.225-0.167 0.5-0.075 0.5-0.166 0.5c-0.092 0-0.167 0.15-0.167 0.333 0 0.184-0.075 0.334-0.167 0.334-0.091 0-0.166 0.225-0.166 0.5s-0.075 0.5-0.167 0.5-0.167 0.15-0.167 0.333-0.075 0.333-0.166 0.333c-0.092 0-0.167 0.225-0.167 0.5s-0.075 0.5-0.167 0.5c-0.091 0-0.166 0.146-0.166 0.324s-0.075 0.37-0.167 0.426c-0.092 0.057-0.167 0.286-0.167 0.51s-0.075 0.407-0.166 0.407c-0.092 0-0.167 0.188-0.167 0.417s-0.075 0.416-0.167 0.416c-0.091 0-0.166 0.225-0.166 0.5s-0.075 0.5-0.167 0.5-0.167 0.225-0.167 0.5-0.075 0.5-0.166 0.5c-0.092 0-0.167 0.15-0.167 0.334 0 0.183-0.075 0.333-0.167 0.333-0.091 0-0.166 0.225-0.166 0.5s-0.075 0.5-0.167 0.5-0.167 0.15-0.167 0.333c0 0.184-0.075 0.334-0.166 0.334-0.092 0-0.167 0.225-0.167 0.5s-0.075 0.5-0.167 0.5c-0.091 0-0.166 0.15-0.166 0.333s-0.075 0.333-0.167 0.333-0.167 0.225-0.167 0.5-0.075 0.5-0.166 0.5c-0.092 0-0.167 0.15-0.167 0.334 0 0.183-0.075 0.333-0.167 0.333-0.091 0-0.166 0.225-0.166 0.5s-0.075 0.5-0.167 0.5-0.167 0.146-0.167 0.323c0 0.178-0.075 0.37-0.166 0.427-0.092 0.057-0.167 0.324-0.167 0.593 0 0.27-0.075 0.49-0.167 0.49-0.091 0-0.166 0.118-0.166 0.262s-0.113 0.375-0.25 0.512c-0.138 0.138-0.25 0.395-0.25 0.572 0 0.176-0.075 0.321-0.167 0.321s-0.167 0.146-0.167 0.323c0 0.178-0.075 0.37-0.166 0.427-0.092 0.057-0.167 0.286-0.167 0.51s-0.075 0.407-0.167 0.407c-0.091 0-0.166 0.145-0.166 0.323s-0.075 0.37-0.167 0.427c-0.092 0.056-0.167 0.286-0.167 0.51 0 0.223-0.075 0.406-0.166 0.406-0.092 0-0.167 0.146-0.167 0.324s-0.075 0.37-0.167 0.426c-0.091 0.057-0.166 0.286-0.166 0.51s-0.075 0.407-0.167 0.407-0.167 0.146-0.167 0.323c0 0.178-0.075 0.37-0.166 0.427-0.092 0.057-0.167 0.282-0.167 0.5s-0.075 0.443-0.167 0.5c-0.091 0.057-0.166 0.249-0.166 0.427 0 0.177-0.075 0.323-0.167 0.323s-0.167 0.225-0.167 0.5-0.075 0.5-0.166 0.5c-0.092 0-0.167 0.225-0.167 0.5s-0.075 0.5-0.167 0.5c-0.091 0-0.166 0.15-0.166 0.333 0 0.184-0.075 0.334-0.167 0.334s-0.167 0.225-0.167 0.5-0.075 0.5-0.166 0.5c-0.092 0-0.167 0.15-0.167 0.333s-0.075 0.333-0.167 0.333c-0.091 0-0.166 0.15-0.166 0.334 0 0.183-0.075 0.333-0.167 0.333s-0.167 0.15-0.167 0.333c0 0.184-0.075 0.334-0.166 0.334-0.092 0-0.167 0.118-0.167 0.262 0 0.336-0.401 0.738-0.738 0.738-0.144 0-0.262 0.075-0.262 0.166 0 0.092-0.3 0.167-0.667 0.167-0.629 0-0.666 0.028-0.666 0.5v0.5h3c2.616 0 3-0.034 3-0.262 0-0.393-0.423-0.738-0.905-0.738-0.318 0-0.429-0.086-0.429-0.333 0-0.184 0.075-0.334 0.167-0.334s0.167-0.225 0.167-0.5 0.075-0.5 0.166-0.5c0.092 0 0.167-0.15 0.167-0.333s0.075-0.333 0.167-0.333c0.091 0 0.166-0.225 0.166-0.5s0.075-0.5 0.167-0.5 0.167-0.15 0.167-0.334c0-0.183 0.075-0.333 0.166-0.333 0.092 0 0.167-0.225 0.167-0.5s0.075-0.5 0.167-0.5c0.091 0 0.166-0.146 0.166-0.323 0-0.178 0.075-0.37 0.167-0.427s0.167-0.324 0.167-0.593c0-0.27 0.075-0.49 0.166-0.49 0.092 0 0.167-0.15 0.167-0.334 0-0.183 0.075-0.333 0.167-0.333 0.091 0 0.166-0.225 0.166-0.5s0.075-0.5 0.167-0.5 0.167-0.15 0.167-0.333c0-0.184 0.075-0.334 0.166-0.334 0.092 0 0.167-0.106 0.167-0.236s0.188-0.61 0.417-1.066 0.416-0.95 0.416-1.097 0.075-0.267 0.167-0.267 0.167-0.146 0.167-0.324 0.075-0.37 0.166-0.426c0.092-0.057 0.167-0.286 0.167-0.51s0.075-0.407 0.167-0.407c0.091 0 0.166-0.146 0.166-0.323 0-0.178 0.075-0.37 0.167-0.427s0.167-0.254 0.167-0.438c0-0.789 0.154-0.812 5.416-0.812 5.352 0 5.417 0.011 5.417 0.905 0 0.235 0.075 0.428 0.167 0.428 0.091 0 0.166 0.15 0.166 0.334 0 0.183 0.075 0.333 0.167 0.333s0.167 0.225 0.167 0.5 0.075 0.5 0.166 0.5c0.092 0 0.167 0.15 0.167 0.333 0 0.184 0.075 0.334 0.167 0.334 0.091 0 0.166 0.225 0.166 0.5s0.075 0.5 0.167 0.5 0.167 0.15 0.167 0.333 0.075 0.333 0.166 0.333c0.092 0 0.167 0.225 0.167 0.5s0.075 0.5 0.167 0.5c0.091 0 0.166 0.15 0.166 0.334 0 0.183 0.075 0.333 0.167 0.333s0.167 0.15 0.167 0.333c0 0.184 0.075 0.334 0.166 0.334 0.092 0 0.167 0.225 0.167 0.5s0.075 0.5 0.167 0.5c0.091 0 0.166 0.145 0.166 0.323s0.075 0.37 0.167 0.427c0.092 0.056 0.167 0.281 0.167 0.5 0 0.218 0.075 0.443 0.166 0.5 0.092 0.056 0.167 0.248 0.167 0.426s0.059 0.324 0.13 0.324c0.072 0 0.233 0.356 0.357 0.791 0.241 0.841 0.681 1.755 0.888 1.848 0.069 0.03 0.125 0.268 0.125 0.527 0 0.26 0.093 0.504 0.207 0.542 0.337 0.112-0.287 0.625-0.761 0.625-0.396 0-0.613 0.27-0.613 0.764 0 0.198 0.738 0.236 4.584 0.236h4.583v-0.5c0-0.472-0.037-0.5-0.667-0.5-0.366 0-0.666-0.075-0.666-0.167 0-0.091-0.118-0.166-0.262-0.166-0.321 0-0.738-0.396-0.738-0.702 0-0.123-0.15-0.333-0.334-0.465-0.183-0.132-0.333-0.374-0.333-0.537s-0.075-0.296-0.167-0.296c-0.091 0-0.166-0.15-0.166-0.334 0-0.183-0.075-0.333-0.167-0.333s-0.167-0.225-0.167-0.5-0.075-0.5-0.166-0.5c-0.092 0-0.167-0.225-0.167-0.5s-0.075-0.5-0.167-0.5c-0.091 0-0.166-0.15-0.166-0.333 0-0.184-0.075-0.334-0.167-0.334s-0.167-0.15-0.167-0.333-0.075-0.333-0.166-0.333c-0.092 0-0.167-0.221-0.167-0.49 0-0.27-0.075-0.537-0.167-0.594-0.091-0.056-0.166-0.248-0.166-0.426s-0.075-0.324-0.167-0.324-0.167-0.225-0.167-0.5-0.075-0.5-0.166-0.5c-0.092 0-0.167-0.15-0.167-0.333s-0.075-0.333-0.167-0.333c-0.091 0-0.166-0.225-0.166-0.5s-0.075-0.5-0.167-0.5-0.167-0.15-0.167-0.334c0-0.183-0.075-0.333-0.166-0.333-0.092 0-0.167-0.225-0.167-0.5s-0.075-0.5-0.167-0.5c-0.091 0-0.166-0.15-0.166-0.333 0-0.184-0.075-0.334-0.167-0.334s-0.167-0.138-0.167-0.307c0-0.4-0.479-1.359-0.679-1.359-0.084 0-0.154-0.225-0.154-0.5s-0.075-0.5-0.167-0.5c-0.091 0-0.166-0.146-0.166-0.324s-0.075-0.37-0.167-0.426c-0.092-0.057-0.167-0.324-0.167-0.594 0-0.269-0.075-0.49-0.166-0.49-0.092 0-0.167-0.15-0.167-0.333s-0.075-0.333-0.167-0.333c-0.091 0-0.166-0.225-0.166-0.5s-0.075-0.5-0.167-0.5-0.167-0.15-0.167-0.334c0-0.183-0.075-0.333-0.166-0.333-0.092 0-0.167-0.225-0.167-0.5s-0.075-0.5-0.167-0.5c-0.091 0-0.166-0.15-0.166-0.333 0-0.184-0.075-0.334-0.167-0.334s-0.167-0.225-0.167-0.5-0.075-0.5-0.166-0.5c-0.092 0-0.167-0.15-0.167-0.333s-0.075-0.333-0.167-0.333c-0.091 0-0.166-0.225-0.166-0.5s-0.075-0.5-0.167-0.5-0.167-0.15-0.167-0.334c0-0.183-0.075-0.333-0.166-0.333-0.092 0-0.167-0.15-0.167-0.333 0-0.184-0.075-0.334-0.167-0.334-0.091 0-0.166-0.22-0.166-0.49 0-0.269-0.075-0.536-0.167-0.593s-0.167-0.249-0.167-0.427c0-0.177-0.075-0.323-0.166-0.323-0.092 0-0.167-0.225-0.167-0.5s-0.075-0.5-0.167-0.5c-0.091 0-0.166-0.15-0.166-0.333 0-0.184-0.075-0.334-0.167-0.334s-0.167-0.225-0.167-0.5-0.075-0.5-0.166-0.5c-0.092 0-0.167-0.15-0.167-0.333s-0.075-0.333-0.167-0.333c-0.091 0-0.166-0.225-0.166-0.5s-0.075-0.5-0.167-0.5-0.167-0.15-0.167-0.334c0-0.183-0.075-0.333-0.166-0.333-0.092 0-0.167-0.225-0.167-0.5s-0.075-0.5-0.167-0.5c-0.091 0-0.166-0.15-0.166-0.333 0-0.184-0.075-0.334-0.167-0.334s-0.167-0.225-0.167-0.5-0.075-0.5-0.166-0.5c-0.092 0-0.167-0.15-0.167-0.333s-0.07-0.333-0.155-0.333-0.179-0.169-0.208-0.375c-0.054-0.38-1.062-0.645-1.351-0.355m83.881 0.992c0 0.452 0.451 0.738 1.166 0.738 0.716 0 1.167 0.285 1.167 0.738 0 0.144 0.075 0.262 0.167 0.262 0.11 0 0.166 5.613 0.166 16.507v16.508l-0.409 0.409c-0.302 0.302-0.589 0.409-1.095 0.409-0.712 0-1.162 0.286-1.162 0.738 0 0.233 0.588 0.262 5.25 0.262h5.25v-1h-1c-0.55 0-1-0.062-1-0.139 0-0.076-0.188-0.238-0.417-0.361l-0.417-0.223v-33.391l0.709-0.355c0.389-0.195 1.008-0.376 1.375-0.401 0.589-0.041 0.672-0.1 0.719-0.505l0.053-0.458h-5.261c-4.672 0-5.261 0.029-5.261 0.262m11.833 0.238c0 0.472 0.037 0.5 0.667 0.5 0.366 0 0.666 0.075 0.666 0.166 0 0.092 0.118 0.167 0.262 0.167 0.312 0 0.571 0.254 0.891 0.875 0.131 0.252 0.299 0.458 0.375 0.458 0.077 0 0.139 0.15 0.139 0.334 0 0.183 0.075 0.333 0.167 0.333 0.091 0 0.166 0.15 0.166 0.333 0 0.184 0.075 0.334 0.167 0.334s0.167 0.15 0.167 0.333 0.075 0.333 0.166 0.333c0.092 0 0.167 0.225 0.167 0.5s0.075 0.5 0.167 0.5c0.091 0 0.166 0.15 0.166 0.334 0 0.183 0.075 0.333 0.167 0.333s0.167 0.178 0.167 0.396 0.112 0.49 0.25 0.604c0.137 0.114 0.25 0.311 0.25 0.437s0.075 0.23 0.166 0.23c0.092 0 0.167 0.225 0.167 0.5s0.075 0.5 0.167 0.5c0.091 0 0.166 0.145 0.166 0.323s0.075 0.37 0.167 0.427c0.092 0.056 0.167 0.323 0.167 0.593 0 0.269 0.075 0.49 0.166 0.49 0.092 0 0.167 0.15 0.167 0.333 0 0.184 0.075 0.334 0.167 0.334 0.091 0 0.166 0.225 0.166 0.5s0.075 0.5 0.167 0.5 0.167 0.15 0.167 0.333 0.075 0.333 0.166 0.333c0.092 0 0.167 0.225 0.167 0.5s0.075 0.5 0.167 0.5c0.091 0 0.166 0.15 0.166 0.334 0 0.183 0.075 0.333 0.167 0.333s0.167 0.183 0.167 0.407 0.075 0.453 0.166 0.51c0.092 0.056 0.167 0.248 0.167 0.426s0.075 0.324 0.167 0.324c0.091 0 0.166 0.15 0.166 0.333s0.075 0.333 0.167 0.333 0.167 0.225 0.167 0.5 0.075 0.5 0.166 0.5c0.092 0 0.167 0.15 0.167 0.334 0 0.183 0.075 0.333 0.167 0.333 0.091 0 0.166 0.221 0.166 0.49 0 0.27 0.075 0.537 0.167 0.593 0.092 0.057 0.167 0.249 0.167 0.427s0.075 0.323 0.166 0.323c0.092 0 0.167 0.225 0.167 0.5s0.075 0.5 0.167 0.5c0.091 0 0.166 0.15 0.166 0.334 0 0.183 0.075 0.333 0.167 0.333s0.167 0.225 0.167 0.5 0.075 0.5 0.166 0.5c0.092 0 0.167 0.15 0.167 0.333 0 0.184 0.075 0.334 0.167 0.334 0.091 0 0.166 0.225 0.166 0.5s0.075 0.5 0.167 0.5 0.167 0.15 0.167 0.333 0.075 0.333 0.166 0.333c0.092 0 0.167 0.183 0.167 0.407s0.075 0.453 0.167 0.51c0.091 0.057 0.166 0.249 0.166 0.427 0 0.177 0.062 0.323 0.137 0.323s0.239 0.375 0.363 0.833c0.125 0.459 0.289 0.834 0.364 0.834s0.136 0.152 0.136 0.338 0.113 0.382 0.25 0.435c0.143 0.054 0.25 0.303 0.25 0.578 0 0.265 0.075 0.482 0.167 0.482s0.167 0.15 0.167 0.333c0 0.184 0.075 0.334 0.166 0.334 0.092 0 0.167 0.225 0.167 0.5s0.075 0.5 0.167 0.5c0.091 0 0.166 0.15 0.166 0.333s0.075 0.333 0.167 0.333 0.167 0.225 0.167 0.5 0.075 0.5 0.166 0.5c0.092 0 0.167 0.15 0.167 0.334 0 0.183 0.075 0.333 0.167 0.333 0.091 0 0.166 0.225 0.166 0.5s0.075 0.5 0.167 0.5 0.167 0.15 0.167 0.333c0 0.184 0.075 0.334 0.166 0.334 0.092 0 0.167 0.225 0.167 0.5 0 0.472 0.037 0.5 0.667 0.5 0.555 0 0.666-0.056 0.666-0.334 0-0.183 0.075-0.333 0.167-0.333s0.167-0.15 0.167-0.333c0-0.184 0.075-0.334 0.166-0.334 0.092 0 0.167-0.225 0.167-0.5s0.075-0.5 0.167-0.5c0.091 0 0.166-0.15 0.166-0.333s0.075-0.333 0.167-0.333 0.167-0.225 0.167-0.5 0.075-0.5 0.166-0.5c0.092 0 0.167-0.15 0.167-0.334 0-0.183 0.075-0.333 0.167-0.333 0.091 0 0.166-0.225 0.166-0.5s0.075-0.5 0.167-0.5 0.167-0.15 0.167-0.333c0-0.184 0.075-0.334 0.166-0.334 0.092 0 0.167-0.225 0.167-0.5s0.075-0.5 0.167-0.5c0.091 0 0.166-0.145 0.166-0.323s0.075-0.37 0.167-0.427c0.092-0.056 0.167-0.323 0.167-0.593 0-0.269 0.075-0.49 0.166-0.49 0.092 0 0.167-0.15 0.167-0.333 0-0.184 0.075-0.334 0.167-0.334 0.091 0 0.166-0.225 0.166-0.5s0.075-0.5 0.167-0.5 0.167-0.15 0.167-0.333 0.075-0.333 0.166-0.333c0.092 0 0.167-0.225 0.167-0.5s0.075-0.5 0.167-0.5c0.091 0 0.166-0.104 0.166-0.23s0.113-0.323 0.25-0.437c0.138-0.114 0.25-0.386 0.25-0.604s0.075-0.396 0.167-0.396 0.167-0.146 0.167-0.323c0-0.178 0.075-0.37 0.166-0.427 0.092-0.057 0.167-0.286 0.167-0.51s0.075-0.407 0.167-0.407c0.091 0 0.166-0.145 0.166-0.323s0.075-0.37 0.167-0.427c0.092-0.056 0.167-0.281 0.167-0.5 0-0.218 0.075-0.443 0.166-0.5 0.092-0.056 0.167-0.248 0.167-0.426s0.061-0.324 0.137-0.324c0.075 0 0.238-0.375 0.363-0.833s0.275-0.833 0.333-0.833c0.059 0 0.209-0.375 0.334-0.834 0.124-0.458 0.288-0.833 0.363-0.833s0.137-0.146 0.137-0.323c0-0.178 0.075-0.37 0.166-0.427 0.092-0.057 0.167-0.286 0.167-0.51s0.075-0.407 0.167-0.407c0.091 0 0.166-0.145 0.166-0.323s0.075-0.37 0.167-0.427c0.092-0.056 0.167-0.286 0.167-0.51 0-0.223 0.075-0.406 0.166-0.406 0.092 0 0.167-0.146 0.167-0.324s0.075-0.37 0.167-0.426c0.091-0.057 0.166-0.286 0.166-0.51s0.075-0.407 0.167-0.407 0.167-0.187 0.167-0.417c0-0.229 0.075-0.416 0.166-0.416 0.092 0 0.167-0.225 0.167-0.5s0.075-0.5 0.167-0.5c0.091 0 0.166-0.15 0.166-0.334 0-0.183 0.075-0.333 0.167-0.333s0.167-0.225 0.167-0.5 0.075-0.5 0.166-0.5c0.092 0 0.167-0.15 0.167-0.333 0-0.184 0.075-0.334 0.167-0.334 0.091 0 0.166-0.225 0.166-0.5s0.075-0.5 0.167-0.5 0.167-0.15 0.167-0.333 0.075-0.333 0.166-0.333c0.092 0 0.167-0.225 0.167-0.5s0.075-0.5 0.167-0.5c0.091 0 0.166-0.15 0.166-0.334 0-0.183 0.075-0.333 0.167-0.333s0.167-0.116 0.167-0.257c0-0.285 0.138-0.48 1.015-1.428 0.463-0.501 0.724-0.648 1.149-0.648 0.327 0 0.638-0.118 0.77-0.292 0.512-0.674 0.373-0.708-2.851-0.708h-3.083v0.5c0 0.444 0.055 0.5 0.5 0.5 0.39 0 0.5 0.073 0.5 0.336 0 0.469-0.388 1.664-0.541 1.664-0.069 0-0.126 0.145-0.126 0.323s-0.075 0.37-0.167 0.427c-0.091 0.056-0.166 0.286-0.166 0.51 0 0.223-0.075 0.406-0.167 0.406s-0.167 0.146-0.167 0.324-0.075 0.37-0.166 0.426c-0.092 0.057-0.167 0.286-0.167 0.51s-0.075 0.407-0.167 0.407c-0.091 0-0.166 0.188-0.166 0.417s-0.075 0.416-0.167 0.416-0.167 0.188-0.167 0.417-0.075 0.417-0.166 0.417c-0.092 0-0.167 0.187-0.167 0.416 0 0.23-0.075 0.417-0.167 0.417-0.091 0-0.166 0.225-0.166 0.5s-0.075 0.5-0.167 0.5-0.167 0.15-0.167 0.333c0 0.184-0.075 0.334-0.166 0.334-0.092 0-0.167 0.225-0.167 0.5s-0.075 0.5-0.167 0.5c-0.091 0-0.166 0.15-0.166 0.333s-0.075 0.333-0.167 0.333-0.167 0.225-0.167 0.5-0.075 0.5-0.166 0.5c-0.092 0-0.167 0.15-0.167 0.334 0 0.183-0.075 0.333-0.167 0.333-0.091 0-0.166 0.225-0.166 0.5s-0.075 0.5-0.167 0.5-0.167 0.15-0.167 0.333c0 0.184-0.075 0.334-0.166 0.334-0.092 0-0.167 0.225-0.167 0.5s-0.075 0.5-0.167 0.5c-0.091 0-0.166 0.15-0.166 0.333s-0.075 0.333-0.167 0.333-0.167 0.225-0.167 0.5-0.075 0.5-0.166 0.5c-0.092 0-0.167 0.156-0.167 0.346 0 0.189-0.113 0.457-0.25 0.595-0.138 0.137-0.25 0.394-0.25 0.571s-0.075 0.322-0.167 0.322c-0.091 0-0.166 0.145-0.166 0.323s-0.075 0.37-0.167 0.427c-0.092 0.056-0.167 0.286-0.167 0.51 0 0.223-0.075 0.406-0.166 0.406-0.092 0-0.167 0.146-0.167 0.324s-0.075 0.37-0.167 0.426c-0.091 0.057-0.166 0.286-0.166 0.51s-0.075 0.407-0.167 0.407-0.167 0.146-0.167 0.323c0 0.178-0.075 0.37-0.166 0.427-0.092 0.057-0.167 0.286-0.167 0.51s-0.075 0.407-0.167 0.407c-0.091 0-0.166 0.145-0.166 0.323s-0.075 0.37-0.167 0.427c-0.092 0.056-0.167 0.286-0.167 0.51 0 0.223-0.075 0.406-0.166 0.406-0.092 0-0.167 0.146-0.167 0.324s-0.075 0.37-0.167 0.426c-0.091 0.057-0.166 0.286-0.166 0.51s-0.075 0.407-0.167 0.407-0.167 0.188-0.167 0.417-0.075 0.416-0.166 0.416c-0.092 0-0.167-0.145-0.167-0.323s-0.075-0.37-0.167-0.427c-0.091-0.056-0.166-0.248-0.166-0.426s-0.075-0.324-0.167-0.324-0.167-0.225-0.167-0.5-0.075-0.5-0.166-0.5c-0.092 0-0.167-0.15-0.167-0.333s-0.075-0.333-0.167-0.333c-0.091 0-0.166-0.225-0.166-0.5s-0.075-0.5-0.167-0.5-0.167-0.15-0.167-0.334c0-0.183-0.075-0.333-0.166-0.333-0.092 0-0.167-0.225-0.167-0.5s-0.075-0.5-0.167-0.5c-0.091 0-0.166-0.15-0.166-0.333 0-0.184-0.075-0.334-0.167-0.334s-0.167-0.225-0.167-0.5-0.075-0.5-0.166-0.5c-0.092 0-0.167-0.15-0.167-0.333s-0.061-0.333-0.137-0.333c-0.075 0-0.238-0.375-0.363-0.834-0.125-0.458-0.288-0.833-0.363-0.833-0.076 0-0.137-0.146-0.137-0.323 0-0.178-0.075-0.37-0.167-0.427-0.091-0.057-0.166-0.288-0.166-0.515s-0.113-0.455-0.25-0.508c-0.138-0.053-0.25-0.238-0.25-0.411 0-0.174-0.075-0.316-0.167-0.316s-0.167-0.225-0.167-0.5-0.075-0.5-0.166-0.5c-0.092 0-0.167-0.15-0.167-0.333 0-0.184-0.075-0.334-0.167-0.334-0.091 0-0.166-0.225-0.166-0.5s-0.075-0.5-0.167-0.5-0.167-0.15-0.167-0.333-0.075-0.333-0.166-0.333c-0.092 0-0.167-0.225-0.167-0.5s-0.075-0.5-0.167-0.5c-0.091 0-0.166-0.15-0.166-0.334 0-0.183-0.075-0.333-0.167-0.333s-0.167-0.225-0.167-0.5-0.075-0.5-0.166-0.5c-0.092 0-0.167-0.15-0.167-0.333 0-0.184-0.075-0.334-0.167-0.334-0.091 0-0.166-0.22-0.166-0.49 0-0.269-0.075-0.536-0.167-0.593s-0.167-0.249-0.167-0.427c0-0.177-0.075-0.323-0.166-0.323-0.092 0-0.167-0.225-0.167-0.5s-0.075-0.5-0.167-0.5c-0.091 0-0.166-0.15-0.166-0.333 0-0.184-0.075-0.334-0.167-0.334s-0.167-0.225-0.167-0.5-0.075-0.5-0.166-0.5c-0.092 0-0.167-0.15-0.167-0.333s-0.075-0.333-0.167-0.333c-0.091 0-0.166-0.225-0.166-0.5s-0.075-0.5-0.167-0.5-0.167-0.15-0.167-0.334c0-0.183-0.075-0.333-0.166-0.333-0.092 0-0.167-0.225-0.167-0.5s-0.075-0.5-0.167-0.5c-0.475 0-0.166-1.292 0.334-1.392 0.397-0.079 0.5-0.186 0.5-0.521v-0.42h-9.167v0.5m36.667 0c0 0.481 0.028 0.5 0.748 0.5 0.868 0 1.585 0.499 1.585 1.103 0 0.207 0.075 0.423 0.167 0.48 0.109 0.068 0.166 5.582 0.166 16s-0.057 15.932-0.166 16c-0.092 0.057-0.167 0.286-0.167 0.51 0 0.296-0.091 0.407-0.333 0.407-0.184 0-0.334 0.075-0.334 0.166 0 0.092-0.268 0.167-0.595 0.167-0.63 0-1.071 0.304-1.071 0.738 0 0.236 1.285 0.262 12.916 0.262h12.917v-5.333h-0.5c-0.389 0-0.5 0.074-0.5 0.333 0 0.183-0.075 0.333-0.167 0.333-0.091 0-0.166 0.3-0.166 0.667s-0.075 0.667-0.167 0.667-0.167 0.118-0.167 0.262c0 0.336-0.401 0.738-0.738 0.738-0.144 0-0.262 0.075-0.262 0.166 0 0.092-0.22 0.167-0.49 0.167-0.269 0-0.536 0.075-0.593 0.167-0.066 0.106-2.307 0.166-6.177 0.166-3.937 0-6.073-0.058-6.073-0.166 0-0.092-0.15-0.167-0.333-0.167-0.184 0-0.334-0.075-0.334-0.167 0-0.091-0.118-0.166-0.262-0.166-0.336 0-0.738-0.402-0.738-0.738 0-0.144-0.075-0.262-0.166-0.262-0.092 0-0.167-0.333-0.167-0.74 0-0.408-0.075-0.787-0.167-0.844-0.106-0.065-0.166-2.39-0.166-6.426v-6.324h6.416c6.306 0 6.417 6e-3 6.417 0.334 0 0.183 0.075 0.333 0.167 0.333 0.091 0 0.166 0.112 0.166 0.25 0 0.167 0.167 0.25 0.5 0.25h0.5v-4.167h-0.5c-0.343 0-0.5 0.082-0.5 0.262 0 0.337-0.401 0.738-0.738 0.738-0.144 0-0.262 0.075-0.262 0.167 0 0.108-2.139 0.167-6.083 0.167h-6.083v-15.834h6.406c4.092 0 6.445 0.061 6.51 0.167 0.057 0.092 0.252 0.167 0.434 0.167 0.467 0 1.15 0.737 1.15 1.242 0 0.233 0.075 0.424 0.166 0.424 0.092 0 0.167 0.184 0.167 0.409 0 0.806 0.339 1.258 0.943 1.258h0.557v-5.333h-23.833v0.5m-190.17 7.5c0 0.183 0.075 0.333 0.167 0.333 0.091 0 0.166 0.15 0.166 0.333 0 0.184 0.075 0.334 0.167 0.334s0.167 0.225 0.167 0.5 0.075 0.5 0.166 0.5c0.092 0 0.167 0.145 0.167 0.323s0.075 0.37 0.167 0.427c0.091 0.056 0.166 0.281 0.166 0.5 0 0.218 0.075 0.443 0.167 0.5 0.092 0.056 0.167 0.248 0.167 0.426s0.075 0.324 0.166 0.324c0.092 0 0.167 0.183 0.167 0.406 0 0.224 0.075 0.454 0.167 0.51 0.091 0.057 0.166 0.249 0.166 0.427s0.075 0.323 0.167 0.323 0.167 0.183 0.167 0.407 0.075 0.453 0.166 0.51c0.092 0.057 0.167 0.249 0.167 0.427 0 0.177 0.061 0.323 0.137 0.323 0.075 0 0.238 0.375 0.363 0.833 0.126 0.465 0.324 0.834 0.447 0.834 0.133 0 0.22 0.197 0.22 0.5v0.5h-4.25c-4.096 0-4.25-0.012-4.25-0.324 0-0.178 0.075-0.37 0.166-0.426 0.092-0.057 0.167-0.286 0.167-0.51s0.075-0.407 0.167-0.407c0.091 0 0.166-0.146 0.166-0.323 0-0.178 0.075-0.37 0.167-0.427s0.167-0.286 0.167-0.51 0.075-0.407 0.166-0.407c0.092 0 0.167-0.145 0.167-0.323s0.075-0.37 0.167-0.427c0.091-0.056 0.166-0.286 0.166-0.51 0-0.223 0.075-0.406 0.167-0.406s0.167-0.146 0.167-0.324 0.075-0.37 0.166-0.426c0.092-0.057 0.167-0.286 0.167-0.51s0.075-0.407 0.167-0.407c0.091 0 0.166-0.146 0.166-0.323 0-0.178 0.075-0.37 0.167-0.427s0.167-0.282 0.167-0.5 0.075-0.443 0.166-0.5c0.092-0.057 0.167-0.249 0.167-0.427 0-0.177 0.075-0.323 0.167-0.323 0.091 0 0.166-0.225 0.166-0.5s0.075-0.5 0.167-0.5 0.167-0.15 0.167-0.333c0-0.184 0.075-0.334 0.166-0.334 0.092 0 0.167 0.15 0.167 0.334m57.095-0.096c0.131 0.131 0.238 0.354 0.238 0.495 0 0.142 0.15 0.524 0.334 0.851 0.183 0.326 0.333 0.697 0.333 0.825 0 0.274 0.529 1.317 0.708 1.397 0.069 0.03 0.125 0.274 0.125 0.542 0 0.267 0.075 0.486 0.167 0.486s0.167 0.15 0.167 0.333 0.075 0.333 0.166 0.333c0.092 0 0.167 0.225 0.167 0.5s0.075 0.5 0.167 0.5c0.091 0 0.166 0.15 0.166 0.334 0 0.183 0.075 0.333 0.167 0.333s0.167 0.225 0.167 0.5 0.075 0.5 0.166 0.5c0.092 0 0.167 0.15 0.167 0.333 0 0.184 0.075 0.334 0.167 0.334 0.091 0 0.166 0.225 0.166 0.5s0.075 0.5 0.167 0.5 0.167 0.15 0.167 0.333 0.075 0.333 0.166 0.333c0.092 0 0.167 0.075 0.167 0.167 0 0.107-1.583 0.167-4.417 0.167-4.305 0-4.416-9e-3 -4.416-0.334 0-0.183 0.075-0.333 0.166-0.333 0.092 0 0.167-0.15 0.167-0.333 0-0.184 0.075-0.334 0.167-0.334 0.091 0 0.166-0.225 0.166-0.5s0.075-0.5 0.167-0.5 0.167-0.15 0.167-0.333 0.075-0.333 0.166-0.333c0.092 0 0.167-0.225 0.167-0.5s0.075-0.5 0.167-0.5c0.091 0 0.166-0.15 0.166-0.334 0-0.183 0.075-0.333 0.167-0.333s0.167-0.225 0.167-0.5 0.075-0.5 0.166-0.5c0.092 0 0.167-0.15 0.167-0.333 0-0.184 0.075-0.334 0.167-0.334 0.091 0 0.166-0.225 0.166-0.5s0.075-0.5 0.167-0.5 0.167-0.145 0.167-0.323 0.075-0.37 0.166-0.427c0.092-0.056 0.167-0.323 0.167-0.593 0-0.269 0.075-0.49 0.167-0.49 0.091 0 0.166-0.15 0.166-0.333 0-0.184 0.075-0.334 0.167-0.334s0.167-0.225 0.167-0.5c0-0.559 0.081-0.609 0.428-0.262" fill="#fcfcfc"/>
<path d="m37.906 2.226c-0.739 0.38-1.714 0.857-2.166 1.06-1.035 0.464-2.139 1.092-2.213 1.257-0.03 0.069-0.116 0.089-0.189 0.043-0.073-0.045-0.226 0.029-0.34 0.166-0.113 0.136-0.346 0.248-0.518 0.248-0.173 0-0.313 0.075-0.313 0.167 0 0.091-0.15 0.166-0.334 0.166-0.183 0-0.333 0.075-0.333 0.167s-0.098 0.167-0.217 0.167c-0.306 0-1.113 0.392-1.115 0.541-1e-3 0.069-0.193 0.125-0.428 0.125-0.242 0-0.382 0.072-0.323 0.167 0.058 0.094-0.077 0.167-0.31 0.167-0.227 0-0.438 0.06-0.468 0.133-0.047 0.114-10.558 5.383-12.556 6.295-0.366 0.167-0.704 0.346-0.75 0.396-0.046 0.051-0.533 0.317-1.083 0.592s-1.025 0.557-1.056 0.625c-0.03 0.069-0.194 0.125-0.365 0.125-0.17 0-0.356 0.075-0.412 0.167-0.057 0.092-0.253 0.167-0.437 0.167-0.183 0-0.287 0.075-0.23 0.166 0.059 0.095-0.085 0.167-0.333 0.167-0.249 0-0.392 0.072-0.334 0.167 0.057 0.091-6e-3 0.166-0.141 0.166-0.285 0-1.666 0.692-1.748 0.875-0.03 0.069-0.149 0.125-0.265 0.125-0.115 0-0.945 0.375-1.846 0.834-0.9 0.458-1.737 0.833-1.86 0.833s-0.223 0.075-0.223 0.167c0 0.091-0.15 0.166-0.333 0.166-0.184 0-0.334 0.075-0.334 0.167s-0.15 0.167-0.333 0.167-0.333 0.075-0.333 0.166c0 0.092-0.098 0.167-0.217 0.167-0.307 0-1.114 0.392-1.115 0.542-1e-3 0.068-0.145 0.125-0.321 0.125s-0.345 0.059-0.375 0.133c-0.031 0.073-0.412 0.298-0.847 0.5l-0.792 0.368v28c0 24.777 0.029 27.999 0.25 27.999 0.138 0 0.25 0.075 0.25 0.166 0 0.092 0.15 0.167 0.333 0.167 0.184 0 0.334 0.075 0.334 0.167 0 0.091 0.15 0.166 0.333 0.166s0.333 0.075 0.333 0.167 0.15 0.167 0.334 0.167c0.183 0 0.333 0.075 0.333 0.166 0 0.092 0.15 0.167 0.333 0.167 0.184 0 0.334 0.075 0.334 0.167 0 0.091 0.145 0.166 0.323 0.166s0.37 0.075 0.427 0.167c0.056 0.092 0.248 0.167 0.426 0.167s0.324 0.075 0.324 0.166c0 0.092 0.15 0.167 0.333 0.167s0.333 0.075 0.333 0.167c0 0.091 0.15 0.166 0.334 0.166 0.183 0 0.333 0.075 0.333 0.167s0.15 0.167 0.333 0.167c0.184 0 0.334 0.075 0.334 0.166 0 0.092 0.15 0.167 0.333 0.167s0.333 0.075 0.333 0.167c0 0.091 0.15 0.166 0.334 0.166 0.183 0 0.333 0.075 0.333 0.167s0.15 0.167 0.333 0.167c0.184 0 0.334 0.075 0.334 0.166 0 0.092 0.15 0.167 0.333 0.167s0.333 0.075 0.333 0.167c0 0.091 0.15 0.166 0.334 0.166 0.183 0 0.333 0.075 0.333 0.167s0.15 0.167 0.333 0.167c0.184 0 0.334 0.075 0.334 0.166 0 0.092 0.143 0.167 0.319 0.167s0.345 0.069 0.375 0.154c0.031 0.085 0.168 0.179 0.306 0.209 0.137 0.029 0.287 0.099 0.333 0.153 0.174 0.209 1.689 0.984 1.923 0.984 0.134 0 0.244 0.075 0.244 0.167 0 0.091 0.15 0.166 0.333 0.166s0.333 0.075 0.333 0.167 0.15 0.167 0.334 0.167c0.183 0 0.333 0.075 0.333 0.166 0 0.092 0.15 0.167 0.333 0.167 0.184 0 0.334 0.075 0.334 0.167 0 0.091 0.15 0.166 0.333 0.166s0.333 0.075 0.333 0.167 0.15 0.167 0.334 0.167c0.183 0 0.333 0.075 0.333 0.166 0 0.092 0.15 0.167 0.333 0.167 0.184 0 0.334 0.075 0.334 0.167 0 0.091 0.15 0.166 0.333 0.166s0.333 0.075 0.333 0.167 0.15 0.167 0.334 0.167c0.183 0 0.333 0.075 0.333 0.166 0 0.092 0.15 0.167 0.333 0.167 0.184 0 0.334 0.075 0.334 0.167 0 0.091 0.15 0.166 0.333 0.166s0.333 0.075 0.333 0.167 0.098 0.167 0.217 0.167c0.307 0 1.114 0.392 1.115 0.541 1e-3 0.069 0.189 0.125 0.418 0.125 0.23 0 0.417 0.075 0.417 0.167s0.15 0.167 0.333 0.167c0.184 0 0.334 0.075 0.334 0.166 0 0.092 0.15 0.167 0.333 0.167s0.333 0.075 0.333 0.167c0 0.091 0.15 0.166 0.334 0.166 0.183 0 0.333 0.075 0.333 0.167s0.15 0.167 0.333 0.167c0.184 0 0.334 0.075 0.334 0.166 0 0.092 0.15 0.167 0.333 0.167s0.333 0.075 0.333 0.167c0 0.091 0.15 0.166 0.334 0.166 0.183 0 0.333 0.075 0.333 0.167s0.15 0.167 0.333 0.167c0.184 0 0.334 0.075 0.334 0.166 0 0.092 0.15 0.167 0.333 0.167s0.333 0.075 0.333 0.167c0 0.091 0.15 0.166 0.334 0.166 0.183 0 0.333 0.075 0.333 0.167s0.15 0.167 0.333 0.167c0.184 0 0.334 0.075 0.334 0.166 0 0.092 0.15 0.167 0.333 0.167s0.333 0.075 0.333 0.167c0 0.091 0.142 0.166 0.316 0.166 0.173 0 0.359 0.114 0.412 0.252s0.155 0.234 0.226 0.213c0.19-0.057 1.213 0.429 1.213 0.576 0 0.069 0.15 0.126 0.333 0.126 0.184 0 0.334 0.075 0.334 0.167 0 0.091 0.15 0.166 0.333 0.166s0.333 0.075 0.333 0.167 0.15 0.167 0.334 0.167c0.183 0 0.333 0.075 0.333 0.166 0 0.092 0.15 0.167 0.333 0.167 0.184 0 0.334 0.075 0.334 0.167 0 0.091 0.15 0.166 0.333 0.166s0.333 0.075 0.333 0.167 0.15 0.167 0.334 0.167c0.183 0 0.333 0.075 0.333 0.166 0 0.092 0.15 0.167 0.333 0.167 0.184 0 0.334 0.075 0.334 0.167 0 0.091 0.15 0.166 0.333 0.166s0.333 0.075 0.333 0.167 0.15 0.167 0.334 0.167c0.183 0 0.333 0.075 0.333 0.166 0 0.092 0.15 0.167 0.333 0.167 0.184 0 0.334 0.075 0.334 0.167 0 0.642 2.764-0.435 7.583-2.957 0.458-0.239 1.001-0.516 1.207-0.614 0.206-0.099 0.374-0.24 0.375-0.314s0.068-0.094 0.149-0.044c0.081 0.051 0.241-0.02 0.354-0.157 0.113-0.136 0.347-0.248 0.519-0.248s0.313-0.075 0.313-0.166c0-0.092 0.15-0.167 0.333-0.167s0.333-0.075 0.333-0.167c0-0.091 0.098-0.166 0.217-0.166 0.307 0 1.114-0.392 1.115-0.542 1e-3 -0.069 0.194-0.125 0.428-0.125 0.242 0 0.382-0.072 0.324-0.167-0.058-0.094 0.077-0.166 0.309-0.166 0.227 0 0.438-0.06 0.468-0.133 0.031-0.074 2.568-1.377 5.639-2.897 9.618-4.761 9.717-4.811 9.806-5.012 0.03-0.069 0.195-0.125 0.365-0.125s0.356-0.075 0.413-0.167c0.056-0.091 0.253-0.166 0.436-0.166s0.287-0.075 0.23-0.167c-0.058-0.095 0.085-0.167 0.334-0.167 0.248 0 0.392-0.071 0.333-0.166-0.057-0.092 7e-3 -0.167 0.141-0.167 0.285 0 1.666-0.692 1.748-0.875 0.03-0.069 0.15-0.125 0.265-0.125s0.946-0.375 1.846-0.833c0.9-0.459 1.737-0.834 1.86-0.834s0.223-0.075 0.223-0.166c0-0.092 0.15-0.167 0.334-0.167 0.183 0 0.333-0.075 0.333-0.167 0-0.091 0.15-0.166 0.333-0.166 0.184 0 0.334-0.075 0.334-0.167s0.097-0.167 0.216-0.167c0.307 0 1.114-0.392 1.116-0.541 0-0.069 0.151-0.125 0.334-0.125 0.184 0 0.334-0.06 0.334-0.133s0.337-0.272 0.75-0.442l0.75-0.309v-2.641c0-1.453-0.045-2.642-0.1-2.642s-8.608 4.246-19.006 9.435l-18.905 9.436-18.911-9.435-18.912-9.436v-48.753l18.709-9.344c12.254-6.121 18.726-9.439 18.761-9.619 0.036-0.186-0.166-0.37-0.625-0.569-0.373-0.161-0.678-0.351-0.678-0.421s-0.187-0.127-0.417-0.127c-0.229 0-0.416-0.075-0.416-0.167s-0.15-0.167-0.334-0.167c-0.183 0-0.333-0.075-0.333-0.166 0-0.383-1.308-0.101-2.594 0.559" fill="#6bb3ac"/>
<path d="m43.663 3.486c-2e-3 0.183-5.805 3.159-18.834 9.661l-18.83 9.398 0.084 48.186 1.5 0.805c0.825 0.443 1.632 0.849 1.792 0.904 0.16 0.054 0.292 0.165 0.292 0.246s0.15 0.147 0.333 0.147 0.333 0.075 0.333 0.167 0.15 0.167 0.334 0.167c0.183 0 0.333 0.075 0.333 0.166 0 0.092 0.15 0.167 0.333 0.167 0.184 0 0.334 0.075 0.334 0.167 0 0.091 0.15 0.166 0.333 0.166s0.333 0.075 0.333 0.167 0.15 0.167 0.334 0.167c0.183 0 0.333 0.075 0.333 0.166 0 0.092 0.15 0.167 0.333 0.167 0.184 0 0.334 0.075 0.334 0.167 0 0.091 0.15 0.166 0.333 0.166s0.333 0.075 0.333 0.167 0.111 0.167 0.245 0.167c0.135 0 0.512 0.15 0.839 0.333 0.326 0.183 0.703 0.333 0.838 0.333s0.245 0.075 0.245 0.167 0.15 0.167 0.333 0.167c0.184 0 0.334 0.075 0.334 0.166 0 0.092 0.15 0.167 0.333 0.167s0.333 0.075 0.333 0.167c0 0.091 0.15 0.166 0.334 0.166 0.183 0 0.333 0.075 0.333 0.167s0.15 0.167 0.333 0.167c0.184 0 0.334 0.075 0.334 0.166 0 0.092 0.15 0.167 0.333 0.167s0.333 0.075 0.333 0.167c0 0.091 0.15 0.166 0.334 0.166 0.183 0 0.333 0.075 0.333 0.167s0.15 0.167 0.333 0.167c0.184 0 0.334 0.075 0.334 0.166 0 0.092 0.15 0.167 0.333 0.167s0.333 0.075 0.333 0.167c0 0.091 0.15 0.166 0.334 0.166 0.183 0 0.333 0.075 0.333 0.167s0.15 0.167 0.333 0.167c0.184 0 0.334 0.075 0.334 0.166 0 0.092 0.1 0.167 0.222 0.167 0.311 0 5.182 2.482 5.25 2.676 0.03 0.086 0.199 0.157 0.375 0.157s0.319 0.075 0.319 0.167 0.15 0.167 0.334 0.167c0.183 0 0.333 0.075 0.333 0.166 0 0.092 0.15 0.167 0.333 0.167 0.184 0 0.334 0.075 0.334 0.167 0 0.091 0.15 0.166 0.333 0.166s0.333 0.075 0.333 0.167 0.15 0.167 0.334 0.167c0.183 0 0.333 0.075 0.333 0.166 0 0.092 0.11 0.167 0.245 0.167s0.512 0.15 0.838 0.333c0.327 0.184 0.704 0.334 0.839 0.334 0.134 0 0.245 0.075 0.245 0.166 0 0.092 0.15 0.167 0.333 0.167s0.333 0.075 0.333 0.167c0 0.091 0.15 0.166 0.334 0.166 0.183 0 0.333 0.075 0.333 0.167s0.15 0.167 0.333 0.167c0.184 0 0.334 0.075 0.334 0.166 0 0.092 0.15 0.167 0.333 0.167s0.333 0.075 0.333 0.167c0 0.091 0.15 0.166 0.334 0.166 0.183 0 0.333 0.075 0.333 0.167s0.15 0.167 0.333 0.167c0.184 0 0.334 0.075 0.334 0.166 0 0.092 0.15 0.167 0.333 0.167s0.333 0.075 0.333 0.167c0 0.091 0.15 0.166 0.334 0.166 0.183 0 0.333 0.075 0.333 0.167s0.15 0.167 0.333 0.167c0.184 0 0.334 0.075 0.334 0.166 0 0.092 0.15 0.167 0.333 0.167s0.333 0.075 0.333 0.167c0 0.091 0.15 0.166 0.334 0.166 0.183 0 0.333 0.075 0.333 0.167s0.1 0.167 0.222 0.167 0.585 0.184 1.029 0.408c0.444 0.225 0.85 0.387 0.903 0.361 0.053-0.027 1.521-0.742 3.263-1.589 1.741-0.847 5.229-2.573 7.75-3.835 9.879-4.947 13.339-6.672 20.031-9.987l6.948-3.442 0.01-1.958c8e-3 -1.461-0.042-1.958-0.198-1.959-0.157 0-26.678 13.141-32.324 16.017-0.925 0.472-2.134 0.651-2.134 0.317 0-0.092-0.15-0.167-0.333-0.167-0.184 0-0.334-0.075-0.334-0.166 0-0.092-0.15-0.167-0.333-0.167s-0.333-0.075-0.333-0.167c0-0.091-0.15-0.166-0.334-0.166-0.183 0-0.333-0.075-0.333-0.167s-0.15-0.167-0.333-0.167c-0.184 0-0.334-0.075-0.334-0.166 0-0.092-0.15-0.167-0.333-0.167s-0.333-0.075-0.333-0.167c0-0.091-0.15-0.166-0.334-0.166-0.183 0-0.333-0.075-0.333-0.167s-0.15-0.167-0.333-0.167c-0.184 0-0.334-0.075-0.334-0.166 0-0.092-0.15-0.167-0.333-0.167s-0.333-0.075-0.333-0.167c0-0.091-0.15-0.166-0.334-0.166-0.183 0-0.333-0.075-0.333-0.167s-0.15-0.167-0.333-0.167c-0.184 0-0.334-0.075-0.334-0.166 0-0.092-0.15-0.167-0.333-0.167s-0.333-0.075-0.333-0.167c0-0.091-0.101-0.166-0.224-0.166-0.122 0-0.959-0.375-1.86-0.834-0.9-0.458-1.737-0.833-1.86-0.833s-0.223-0.075-0.223-0.167c0-0.091-0.15-0.166-0.333-0.166-0.184 0-0.334-0.075-0.334-0.167s-0.15-0.167-0.333-0.167-0.333-0.075-0.333-0.166c0-0.092-0.15-0.167-0.334-0.167-0.183 0-0.333-0.075-0.333-0.167 0-0.091-0.15-0.166-0.333-0.166-0.184 0-0.334-0.075-0.334-0.167s-0.143-0.167-0.319-0.167-0.345-0.057-0.375-0.127c-0.031-0.069-0.956-0.573-2.056-1.119-1.1-0.547-2.025-1.052-2.055-1.124-0.031-0.071-0.2-0.13-0.375-0.13-0.176 0-0.32-0.075-0.32-0.166 0-0.092-0.15-0.167-0.333-0.167s-0.333-0.075-0.333-0.167c0-0.091-0.15-0.166-0.334-0.166-0.183 0-0.333-0.075-0.333-0.167s-0.15-0.167-0.333-0.167c-0.184 0-0.334-0.075-0.334-0.166 0-0.092-0.15-0.167-0.333-0.167s-0.333-0.075-0.333-0.167c0-0.091-0.15-0.166-0.334-0.166-0.183 0-0.333-0.075-0.333-0.167s-0.15-0.167-0.333-0.167c-0.184 0-0.334-0.075-0.334-0.166 0-0.092-0.15-0.167-0.333-0.167s-0.333-0.075-0.333-0.167c0-0.091-0.15-0.166-0.334-0.166-0.183 0-0.333-0.075-0.333-0.167s-0.1-0.167-0.223-0.167-0.96-0.375-1.86-0.833c-0.901-0.458-1.738-0.833-1.86-0.833-0.123 0-0.224-0.075-0.224-0.167s-0.15-0.167-0.333-0.167-0.333-0.075-0.333-0.166c0-0.092-0.15-0.167-0.334-0.167-0.183 0-0.333-0.075-0.333-0.167 0-0.091-0.15-0.166-0.333-0.166-0.184 0-0.334-0.075-0.334-0.167s-0.15-0.167-0.333-0.167-0.333-0.075-0.333-0.166c0-0.092-0.15-0.167-0.334-0.167-0.183 0-0.333-0.075-0.333-0.167 0-0.091-0.15-0.166-0.334-0.166-0.333 0-0.334-0.084-0.292-22.202l0.043-22.202 3.072-1.548c1.69-0.852 3.172-1.548 3.292-1.548s0.219-0.075 0.219-0.167 0.1-0.167 0.223-0.167c0.195 0 10.736-5.254 14.838-7.395 0.812-0.424 1.581-0.771 1.708-0.771s0.231-0.075 0.231-0.167 0.096-0.167 0.214-0.167c0.117 0 2.309-1.05 4.869-2.333 4.409-2.209 5.75-2.715 5.75-2.167 0 0.092 0.15 0.167 0.334 0.167 0.183 0 0.333 0.075 0.333 0.167 0 0.091 0.15 0.166 0.333 0.166 0.184 0 0.334 0.075 0.334 0.167s0.15 0.167 0.333 0.167 0.333 0.075 0.333 0.166c0 0.092 0.146 0.167 0.324 0.167s0.37 0.075 0.426 0.167c0.057 0.091 0.249 0.166 0.427 0.166s0.323 0.075 0.323 0.167 0.113 0.167 0.25 0.167c0.138 0 0.25-0.057 0.249-0.125-2e-3 -0.152-0.811-0.542-1.125-0.542-0.125 0-0.18-0.075-0.124-0.167 0.057-0.091-0.051-0.166-0.24-0.166s-0.343-0.059-0.343-0.132c0-0.072-0.168-0.143-0.373-0.159-0.204-0.015-0.398-0.106-0.43-0.202s-0.202-0.174-0.378-0.174c-0.175 0-0.319-0.075-0.319-0.167 0-0.091-0.15-0.166-0.333-0.166-0.184 0-0.334-0.075-0.334-0.167s-0.15-0.167-0.333-0.167-0.333-0.075-0.333-0.166c0-0.092-0.15-0.167-0.334-0.167-0.185 0-0.333-0.111-0.333-0.25s-0.148-0.25-0.333-0.25c-0.184 0-0.334-0.08-0.334-0.178 0-0.102-0.142-0.133-0.333-0.072-0.24 0.076-0.333 0.03-0.333-0.165 0-0.149-0.069-0.229-0.154-0.177-0.084 0.052-0.254 1e-3 -0.379-0.115-0.124-0.115-0.335-0.234-0.47-0.265-0.134-0.03-0.282-0.112-0.329-0.183-0.156-0.234-0.668-0.127-0.672 0.141m8.837 4.347c0 0.092 0.15 0.167 0.333 0.167 0.184 0 0.334 0.075 0.334 0.167 0 0.091 0.15 0.166 0.333 0.166s0.333 0.075 0.333 0.167 0.15 0.167 0.334 0.167c0.183 0 0.333 0.075 0.333 0.166 0 0.092 0.15 0.167 0.333 0.167 0.184 0 0.334 0.075 0.334 0.167 0 0.091 0.15 0.166 0.333 0.166s0.333 0.075 0.333 0.167 0.15 0.167 0.334 0.167c0.183 0 0.333 0.075 0.333 0.166 0 0.092 0.15 0.167 0.333 0.167 0.184 0 0.334 0.075 0.334 0.167 0 0.091 0.15 0.166 0.333 0.166s0.333 0.075 0.333 0.167 0.15 0.167 0.334 0.167c0.183 0 0.333 0.075 0.333 0.166 0 0.092 0.15 0.167 0.333 0.167 0.184 0 0.334 0.075 0.334 0.167 0 0.091 0.15 0.166 0.333 0.166s0.333 0.075 0.333 0.167 0.188 0.167 0.417 0.167 0.417 0.075 0.417 0.166c0 0.092 0.143 0.167 0.319 0.167s0.349 0.088 0.385 0.197c0.043 0.129 0.176 0.148 0.389 0.054 0.306-0.135 0.303-0.146-0.052-0.209-0.206-0.036-0.375-0.135-0.375-0.22 0-0.086-0.15-0.155-0.333-0.155s-0.333-0.075-0.333-0.167-0.057-0.158-0.125-0.147c-0.349 0.055-0.718-0.036-0.643-0.159 0.048-0.076-9e-3 -0.138-0.125-0.138-0.284 0-4.509-2.078-4.58-2.252-0.03-0.076-0.199-0.137-0.375-0.137-0.175 0-0.319-0.075-0.319-0.167s-0.15-0.167-0.333-0.167c-0.184 0-0.334-0.075-0.334-0.166 0-0.092-0.15-0.167-0.333-0.167s-0.333-0.075-0.333-0.167c0-0.091-0.15-0.166-0.334-0.166-0.183 0-0.333 0.075-0.333 0.166m9.5 4.667c0 0.092 0.15 0.167 0.333 0.167 0.184 0 0.334-0.075 0.334-0.167s-0.15-0.167-0.334-0.167c-0.183 0-0.333 0.075-0.333 0.167m0.75 0.333c-0.057 0.092 0.051 0.167 0.24 0.167s0.343 0.075 0.343 0.167c0 0.091 0.15 0.166 0.334 0.166 0.183 0 0.333-0.083 0.333-0.184 0-0.102-0.115-0.14-0.256-0.086-0.146 0.056-0.297-8e-3 -0.351-0.149-0.109-0.282-0.489-0.33-0.643-0.081m1.332 0.67c-0.056 0.09 0.026 0.164 0.181 0.164 0.156 0 0.374 0.124 0.485 0.275 0.2 0.274 0.585 0.19 0.585-0.128 0-0.092-0.069-0.124-0.153-0.072s-0.255 0-0.379-0.115c-0.297-0.277-0.594-0.328-0.719-0.124m1.46 0.607c-0.327 0.132-0.244 0.39 0.125 0.39 0.183 0 0.333 0.075 0.333 0.167 0 0.091 0.15 0.166 0.333 0.166 0.184 0 0.334 0.075 0.334 0.167s0.15 0.167 0.333 0.167 0.333 0.075 0.333 0.166c0 0.092 0.15 0.167 0.334 0.167 0.183 0 0.333 0.075 0.333 0.167 0 0.091 0.15 0.166 0.333 0.166 0.184 0 0.334 0.075 0.334 0.167s0.145 0.167 0.323 0.167 0.37 0.075 0.427 0.166c0.056 0.092 0.211 0.167 0.343 0.167s0.24-0.075 0.24-0.167c0-0.091-0.113-0.166-0.25-0.166-0.138 0-0.25-0.075-0.25-0.167s-0.15-0.167-0.333-0.167c-0.184 0-0.334-0.075-0.334-0.166 0-0.092-0.187-0.167-0.416-0.167s-0.417-0.075-0.417-0.167c0-0.091-0.114-0.166-0.252-0.166-0.32 0-0.957-0.352-1.131-0.625-0.074-0.115-0.242-0.209-0.375-0.209s-0.242-0.075-0.242-0.166c0-0.178-0.121-0.193-0.458-0.057m4.625 2.557c0 0.091 0.15 0.166 0.333 0.166s0.333 0.075 0.333 0.167 0.15 0.167 0.334 0.167c0.183 0 0.333 0.075 0.333 0.166 0 0.092 0.15 0.167 0.333 0.167 0.184 0 0.334 0.075 0.334 0.167 0 0.091 0.15 0.166 0.333 0.166s0.333 0.075 0.333 0.167 0.15 0.167 0.334 0.167c0.183 0 0.333 0.075 0.333 0.166 0 0.092 0.15 0.167 0.333 0.167 0.184 0 0.334 0.075 0.334 0.167 0 0.091 0.15 0.166 0.333 0.166s0.333 0.075 0.333 0.167 0.15 0.167 0.334 0.167c0.183 0 0.333 0.075 0.333 0.166 0 0.092 0.15 0.167 0.333 0.167 0.184 0 0.334 0.075 0.334 0.167 0 0.091 0.15 0.166 0.333 0.166s0.333 0.075 0.333 0.167 0.15 0.167 0.334 0.167c0.183 0 0.333 0.075 0.333 0.166 0 0.092 0.15 0.167 0.333 0.167 0.184 0 0.334 0.075 0.334 0.167 0 0.091 0.187 0.166 0.416 0.166 0.23 0 0.417 0.075 0.417 0.167s0.15 0.167 0.333 0.167c0.184 0 0.334 0.075 0.334 0.166 0 0.092 0.15 0.167 0.333 0.167s0.333-0.075 0.333-0.167c0-0.091-0.15-0.166-0.333-0.166s-0.333-0.075-0.333-0.167-0.15-0.167-0.334-0.167c-0.183 0-0.333-0.075-0.333-0.166 0-0.092-0.192-0.167-0.427-0.167-0.238 0-0.381-0.073-0.324-0.165 0.058-0.094-8e-3 -0.122-0.156-0.066-0.144 0.056-0.297-6e-3 -0.349-0.141-0.05-0.131-0.2-0.239-0.331-0.239-0.285 0-1.805-0.751-1.885-0.931-0.031-0.068-0.2-0.125-0.375-0.125-0.176 0-0.32-0.075-0.32-0.166 0-0.092-0.105-0.167-0.234-0.167-0.278 0-1.658-0.695-1.738-0.875-0.03-0.069-0.199-0.125-0.375-0.125s-0.319-0.075-0.319-0.167c0-0.091-0.15-0.166-0.334-0.166-0.183 0-0.333-0.075-0.333-0.167s-0.15-0.167-0.333-0.167c-0.184 0-0.334-0.075-0.334-0.166 0-0.092-0.15-0.167-0.333-0.167s-0.333 0.075-0.333 0.167m10.232 5.027c-0.047 0.077 0.069 0.139 0.258 0.139s0.343 0.075 0.343 0.167 0.169 0.162 0.375 0.156l0.375-0.01-0.375-0.151c-0.206-0.083-0.375-0.216-0.375-0.295 0-0.185-0.487-0.189-0.601-6e-3" fill="#041c44"/>
<path d="m30.709 14.227-16.708 8.356-1e-3 21.836v21.836l16.792 8.374c9.235 4.606 16.857 8.374 16.936 8.373 0.08-1e-3 7.658-3.752 16.84-8.335 9.183-4.584 16.786-8.334 16.897-8.334 0.157 0 0.202-4.89 0.202-21.916 0-17.423-0.043-21.917-0.209-21.917-0.114 0-7.711-3.75-16.88-8.333-9.17-4.584-16.783-8.325-16.917-8.315-0.134 0.011-7.763 3.779-16.952 8.375" fill="#94949c"/>
<path d="m43.289 3.375c-0.045 0.115-8.49 4.408-18.768 9.54l-18.688 9.332v48.753l37.823 18.871 18.964-9.459c20.692-10.321 19.148-9.533 18.99-9.691-0.098-0.098-8.108 3.826-18.86 9.241-6.564 3.306-12.662 6.343-15.833 7.885-1.742 0.847-3.21 1.562-3.263 1.589-0.053 0.026-0.459-0.136-0.903-0.361-0.444-0.224-0.907-0.408-1.029-0.408s-0.222-0.075-0.222-0.167-0.15-0.167-0.333-0.167c-0.184 0-0.334-0.075-0.334-0.166 0-0.092-0.15-0.167-0.333-0.167s-0.333-0.075-0.333-0.167c0-0.091-0.15-0.166-0.334-0.166-0.183 0-0.333-0.075-0.333-0.167s-0.15-0.167-0.333-0.167c-0.184 0-0.334-0.075-0.334-0.166 0-0.092-0.15-0.167-0.333-0.167s-0.333-0.075-0.333-0.167c0-0.091-0.15-0.166-0.334-0.166-0.183 0-0.333-0.075-0.333-0.167s-0.15-0.167-0.333-0.167c-0.184 0-0.334-0.075-0.334-0.166 0-0.092-0.15-0.167-0.333-0.167s-0.333-0.075-0.333-0.167c0-0.091-0.15-0.166-0.334-0.166-0.183 0-0.333-0.075-0.333-0.167s-0.15-0.167-0.333-0.167c-0.184 0-0.334-0.075-0.334-0.166 0-0.092-0.15-0.167-0.333-0.167s-0.333-0.075-0.333-0.167c0-0.091-0.111-0.166-0.245-0.166-0.135 0-0.512-0.15-0.839-0.334-0.326-0.183-0.703-0.333-0.838-0.333s-0.245-0.075-0.245-0.167c0-0.091-0.15-0.166-0.333-0.166-0.184 0-0.334-0.075-0.334-0.167s-0.15-0.167-0.333-0.167-0.333-0.075-0.333-0.166c0-0.092-0.15-0.167-0.334-0.167-0.183 0-0.333-0.075-0.333-0.167 0-0.091-0.15-0.166-0.333-0.166-0.184 0-0.334-0.075-0.334-0.167s-0.143-0.167-0.319-0.167-0.345-0.071-0.375-0.157c-0.068-0.194-4.939-2.676-5.25-2.676-0.122 0-0.222-0.075-0.222-0.167 0-0.091-0.15-0.166-0.334-0.166-0.183 0-0.333-0.075-0.333-0.167s-0.15-0.167-0.333-0.167c-0.184 0-0.334-0.075-0.334-0.166 0-0.092-0.15-0.167-0.333-0.167s-0.333-0.075-0.333-0.167c0-0.091-0.15-0.166-0.334-0.166-0.183 0-0.333-0.075-0.333-0.167s-0.15-0.167-0.333-0.167c-0.184 0-0.334-0.075-0.334-0.166 0-0.092-0.15-0.167-0.333-0.167s-0.333-0.075-0.333-0.167c0-0.091-0.15-0.166-0.334-0.166-0.183 0-0.333-0.075-0.333-0.167s-0.15-0.167-0.333-0.167c-0.184 0-0.334-0.075-0.334-0.166 0-0.092-0.15-0.167-0.333-0.167s-0.333-0.075-0.333-0.167c0-0.091-0.15-0.166-0.334-0.166-0.183 0-0.333-0.075-0.333-0.167s-0.11-0.167-0.245-0.167-0.512-0.15-0.838-0.333c-0.327-0.183-0.704-0.333-0.839-0.333-0.134 0-0.245-0.075-0.245-0.167s-0.15-0.167-0.333-0.167-0.333-0.075-0.333-0.166c0-0.092-0.15-0.167-0.334-0.167-0.183 0-0.333-0.075-0.333-0.167 0-0.091-0.15-0.166-0.333-0.166-0.184 0-0.334-0.075-0.334-0.167s-0.15-0.167-0.333-0.167-0.333-0.075-0.333-0.166c0-0.092-0.15-0.167-0.334-0.167-0.183 0-0.333-0.075-0.333-0.167 0-0.091-0.15-0.166-0.333-0.166-0.184 0-0.334-0.075-0.334-0.167s-0.15-0.167-0.333-0.167-0.333-0.066-0.333-0.147-0.132-0.192-0.292-0.246c-0.16-0.055-0.967-0.461-1.792-0.904l-1.5-0.805-0.084-48.186 18.83-9.398c14.176-7.074 18.832-9.469 18.834-9.689 4e-3 -0.335-0.255-0.393-0.374-0.083m-0.785 4.643c-2.518 1.273-4.674 2.315-4.791 2.315s-0.213 0.075-0.213 0.167-0.104 0.167-0.231 0.167-0.896 0.347-1.708 0.771c-4.102 2.141-14.643 7.395-14.838 7.395-0.123 0-0.223 0.075-0.223 0.167s-0.099 0.167-0.219 0.167-1.602 0.696-3.292 1.548l-3.072 1.548-0.043 22.202c-0.042 22.118-0.041 22.202 0.292 22.202 0.184 0 0.334 0.075 0.334 0.166 0 0.092 0.15 0.167 0.333 0.167 0.184 0 0.334 0.075 0.334 0.167 0 0.091 0.15 0.166 0.333 0.166s0.333 0.075 0.333 0.167 0.15 0.167 0.334 0.167c0.183 0 0.333 0.075 0.333 0.166 0 0.092 0.15 0.167 0.333 0.167 0.184 0 0.334 0.075 0.334 0.167 0 0.091 0.15 0.166 0.333 0.166s0.333 0.075 0.333 0.167 0.101 0.167 0.224 0.167c0.122 0 0.959 0.375 1.86 0.833 0.9 0.458 1.737 0.833 1.86 0.833s0.223 0.075 0.223 0.167 0.15 0.167 0.333 0.167c0.184 0 0.334 0.075 0.334 0.166 0 0.092 0.15 0.167 0.333 0.167s0.333 0.075 0.333 0.167c0 0.091 0.15 0.166 0.334 0.166 0.183 0 0.333 0.075 0.333 0.167s0.15 0.167 0.333 0.167c0.184 0 0.334 0.075 0.334 0.166 0 0.092 0.15 0.167 0.333 0.167s0.333 0.075 0.333 0.167c0 0.091 0.15 0.166 0.334 0.166 0.183 0 0.333 0.075 0.333 0.167s0.15 0.167 0.333 0.167c0.184 0 0.334 0.075 0.334 0.166 0 0.092 0.15 0.167 0.333 0.167s0.333 0.075 0.333 0.167c0 0.091 0.144 0.166 0.32 0.166 0.175 0 0.344 0.059 0.375 0.13 0.03 0.072 0.955 0.577 2.055 1.124 1.1 0.546 2.025 1.05 2.056 1.119 0.03 0.07 0.199 0.127 0.375 0.127s0.319 0.075 0.319 0.167 0.15 0.167 0.334 0.167c0.183 0 0.333 0.075 0.333 0.166 0 0.092 0.15 0.167 0.333 0.167 0.184 0 0.334 0.075 0.334 0.167 0 0.091 0.15 0.166 0.333 0.166s0.333 0.075 0.333 0.167 0.15 0.167 0.334 0.167c0.183 0 0.333 0.075 0.333 0.166 0 0.092 0.1 0.167 0.223 0.167s0.96 0.375 1.86 0.833c0.901 0.459 1.738 0.834 1.86 0.834 0.123 0 0.224 0.075 0.224 0.166 0 0.092 0.15 0.167 0.333 0.167s0.333 0.075 0.333 0.167c0 0.091 0.15 0.166 0.334 0.166 0.183 0 0.333 0.075 0.333 0.167s0.15 0.167 0.333 0.167c0.184 0 0.334 0.075 0.334 0.166 0 0.092 0.15 0.167 0.333 0.167s0.333 0.075 0.333 0.167c0 0.091 0.15 0.166 0.334 0.166 0.183 0 0.333 0.075 0.333 0.167s0.15 0.167 0.333 0.167c0.184 0 0.334 0.075 0.334 0.166 0 0.092 0.15 0.167 0.333 0.167s0.333 0.075 0.333 0.167c0 0.091 0.15 0.166 0.334 0.166 0.183 0 0.333 0.075 0.333 0.167s0.15 0.167 0.333 0.167c0.184 0 0.334 0.075 0.334 0.166 0 0.092 0.15 0.167 0.333 0.167s0.333 0.075 0.333 0.167c0 0.091 0.15 0.166 0.334 0.166 0.183 0 0.333 0.075 0.333 0.167 0 0.334 1.209 0.155 2.134-0.317 5.646-2.876 32.167-16.017 32.324-16.017 0.115 1e-3 0.209-0.074 0.209-0.166 0-0.35-0.84 0.051-17.099 8.167-9.182 4.583-16.76 8.334-16.84 8.335-0.079 1e-3 -7.701-3.767-16.936-8.373l-16.792-8.374v-21.836l1e-3 -21.836 16.793-8.375c9.236-4.606 16.865-8.375 16.952-8.375 0.088 0 7.662 3.75 16.832 8.334 16.182 8.088 17.089 8.522 17.089 8.166 0-0.091-0.15-0.166-0.334-0.166-0.183 0-0.333-0.075-0.333-0.167s-0.154-0.167-0.343-0.167-0.297-0.075-0.24-0.166c0.058-0.095-0.082-0.167-0.324-0.167-0.234 0-0.426-0.075-0.426-0.167 0-0.091-0.15-0.166-0.334-0.166-0.183 0-0.333-0.075-0.333-0.167s-0.191-0.167-0.424-0.167c-0.302 0-0.41-0.078-0.375-0.274 0.027-0.151-0.064-0.307-0.201-0.346-0.222-0.064-0.222-0.052 0 0.105 0.207 0.147 0.186 0.177-0.125 0.179-0.206 2e-3 -0.375-0.072-0.375-0.164 0-0.091-0.15-0.166-0.333-0.166-0.184 0-0.334-0.075-0.334-0.167s-0.15-0.167-0.333-0.167-0.333-0.075-0.333-0.166c0-0.092-0.15-0.167-0.334-0.167-0.183 0-0.333-0.075-0.333-0.167 0-0.091-0.15-0.166-0.333-0.166-0.184 0-0.334-0.075-0.334-0.167s-0.15-0.167-0.333-0.167-0.333-0.075-0.333-0.166c0-0.092-0.15-0.167-0.334-0.167-0.183 0-0.333-0.075-0.333-0.167 0-0.091-0.15-0.166-0.333-0.166-0.184 0-0.334-0.075-0.334-0.167s-0.15-0.167-0.333-0.167-0.333-0.075-0.333-0.166c0-0.092-0.15-0.167-0.334-0.167-0.183 0-0.333-0.075-0.333-0.167 0-0.091-0.15-0.166-0.333-0.166-0.184 0-0.334-0.075-0.334-0.167s-0.15-0.167-0.333-0.167c-0.234 0-0.334-0.112-0.336-0.375-2e-3 -0.302-0.033-0.326-0.161-0.125-0.132 0.206-0.219 0.214-0.496 0.042-0.185-0.115-0.449-0.208-0.588-0.208s-0.252-0.075-0.252-0.167-0.15-0.167-0.334-0.167c-0.183 0-0.333-0.075-0.333-0.166 0-0.092-0.15-0.167-0.333-0.167-0.184 0-0.334-0.075-0.334-0.167 0-0.091-0.15-0.166-0.333-0.166s-0.333-0.075-0.333-0.167-0.15-0.167-0.334-0.167c-0.183 0-0.333-0.075-0.333-0.166 0-0.092-0.15-0.167-0.333-0.167-0.371 0-0.449-0.251-0.125-0.404 0.114-0.054 0-0.058-0.254-0.01-0.321 0.062-0.492 0.011-0.559-0.165-0.054-0.14-0.244-0.254-0.423-0.254s-0.279-0.075-0.223-0.167c0.059-0.095-0.081-0.167-0.323-0.167-0.235 0-0.427-0.075-0.427-0.166 0-0.092-0.154-0.167-0.343-0.167s-0.297-0.075-0.24-0.167c0.058-0.094-0.082-0.166-0.323-0.166-0.256 0-0.427-0.094-0.427-0.235 0-0.152-0.117-0.204-0.333-0.147-0.187 0.049-0.334 5e-3 -0.334-0.099 0-0.102-0.15-0.186-0.333-0.186s-0.333-0.075-0.333-0.167c0-0.091-0.196-0.166-0.435-0.166-0.313 0-0.408-0.068-0.34-0.245 0.051-0.135 0.01-0.296-0.092-0.359-0.112-0.069-0.138-0.039-0.066 0.078 0.075 0.122-7e-3 0.192-0.224 0.192-0.189 0-0.343-0.075-0.343-0.166 0-0.092-0.15-0.167-0.334-0.167-0.183 0-0.333-0.075-0.333-0.167 0-0.091-0.15-0.166-0.333-0.166-0.184 0-0.334-0.075-0.334-0.167s-0.15-0.167-0.333-0.167-0.333-0.075-0.333-0.166c0-0.092-0.15-0.167-0.334-0.167-0.183 0-0.333-0.075-0.333-0.167 0-0.091-0.15-0.166-0.333-0.166-0.184 0-0.334-0.075-0.334-0.167s-0.15-0.167-0.333-0.167-0.333-0.075-0.333-0.166c0-0.092-0.15-0.167-0.334-0.167-0.183 0-0.333-0.075-0.333-0.167 0-0.091-0.15-0.166-0.333-0.166-0.184 0-0.334-0.075-0.334-0.167s-0.15-0.167-0.333-0.167-0.333-0.075-0.333-0.166c0-0.092-0.15-0.167-0.334-0.167-0.23 0-0.337-0.115-0.346-0.375-7e-3 -0.206-0.051-0.281-0.097-0.167-0.097 0.241-0.557 0.285-0.557 0.054 0-0.086-0.168-0.181-0.375-0.213-0.206-0.031-0.36-0.138-0.341-0.237 0.019-0.105-0.136-0.147-0.375-0.101-0.236 0.045-0.409-1e-3 -0.409-0.108 0-0.103-0.15-0.186-0.333-0.186s-0.333-0.075-0.333-0.167-0.15-0.167-0.334-0.167c-0.183 0-0.333-0.075-0.333-0.166 0-0.092-0.15-0.167-0.333-0.167-0.184 0-0.334-0.075-0.334-0.167 0-0.574-1.444-0.032-5.829 2.185" fill="#042c4c"/>
</g>
</svg>
