<?xml version="1.0" encoding="utf-8"?>
<!-- Generator: Adobe Illustrator 23.0.3, SVG Export Plug-In . SVG Version: 6.00 Build 0)  -->
<svg version="1.1" id="Layer_1" xmlns="http://www.w3.org/2000/svg" xmlns:xlink="http://www.w3.org/1999/xlink" x="0px" y="0px"
	 viewBox="0 0 1500 600" style="enable-background:new 0 0 1500 600;" xml:space="preserve">
<style type="text/css">
	.st0{fill:#FFFFFF;}
</style>
<path d="M123,112.4"/>
<g>
	<path class="st0" d="M422.5,429.3l-0.6-7.7L440,415c2.5-0.8,3.8-2.7,4-5.5c0.1-4.7,0.2-10.1,0.2-15.9c0-5.9,0.1-12.4,0.1-19.5
		V229.8c0-6.1,0-11.5-0.1-16.4c-0.1-4.9-0.1-9.3-0.2-13.2c-0.1-3.1-1.3-5.1-3.5-6.1l-18.3-6.9l-0.3-7.7c12.7,0.5,24.9,0.7,36.6,0.7
		c8.9,0,18.1-0.1,27.5-0.4l-21.9-53L287.3,53.6l-176.8,73.2L37.3,303.6l73.2,176.8l176.8,73.2l176.8-73.2l21.4-51.8h-26.4
		C447.2,428.7,435,428.9,422.5,429.3z M228.3,362.7l58.9,24.4l58.9-24.4l0.2,0.2l58.3,58.3l0.4,0.4l-117.9,48.8l-117.9-48.8
		l-48.8-117.9l48.8-117.9L287.1,137L405,185.8l-0.4,0.4l-58.3,58.3l-0.2,0.2l-58.9-24.4l-58.9,24.4l-24.4,58.9L228.3,362.7z"/>
	<path class="st0" d="M473.5,199.4c-0.1,4.2-0.2,10.2-0.2,18.2c-0.1,7.9-0.1,11.8-0.1,11.6v144.7c0,13.2,0.1,26.2,0.3,39h18.6
		l45.1-109l-47.4-114.4l-12.5,4.5C475,194.6,473.7,196.4,473.5,199.4z"/>
	<path class="st0" d="M545.4,412.7h-53.3l-6.6,16h10.7c21.6,0,45.2,0.2,70.7,0.5l0.9-1.2l3.2-63.7l-6.6,1.2L545.4,412.7z"/>
	<path class="st0" d="M495.7,187.3l-0.6-7.7c-3.1,0.1-6.1,0.2-9.1,0.3l3.9,9.4L495.7,187.3z"/>
	<path class="st0" d="M774.8,416.6c-3.7-1.4-6.6-3.6-8.6-6.5s-4.3-8.5-6.7-16.6L694,175.9l-15.2,2.7l-75.4,217.1
		c-2.2,6.3-4.1,10.9-5.9,13.9c-1.8,3-4.5,5.2-8.3,6.6l-14.9,5.5l0.7,7.7c10.9-0.4,20.8-0.5,29.7-0.5c8.9,0,20.3,0.2,34.2,0.5l-0.3-8
		l-13.7-4.8c-1.9-0.7-3.3-1.6-4.2-2.6c-0.9-1-1.4-2.5-1.4-4.5c0-2.3,0.6-5.3,1.8-9.3c1.2-3.9,2.8-9.2,4.9-15.8l15.5-47.5h71.1
		l13.9,47.7c1.9,6.4,3.3,11.5,4.4,15.4c1,3.9,1.5,7,1.5,9.3c0,2.1-0.4,3.7-1.3,4.7c-0.8,1-2.2,1.9-4.2,2.8l-14,5l0.6,7.7
		c15.2-0.4,28.5-0.5,39.7-0.5c11,0,23,0.2,35.9,0.5l-0.3-7.7L774.8,416.6z M646.9,320.6l32-98l28.8,98H646.9z"/>
	<path class="st0" d="M974.4,420c-2-0.7-3.9-1.5-5.8-2.5c-1.8-0.9-3.6-2.2-5.2-3.6c-1.7-1.5-3.3-3.2-5-5.2c-3.2-3.9-6.8-9.3-10.5-16
		c-3.8-6.8-7.9-14.6-12.5-23.4c-4.5-8.8-9.4-18.6-14.7-29.2c-5.3-10.6-11.1-21.6-17.3-33c16-5.9,27.8-14.4,35.6-25.4
		c7.8-11,11.7-25.3,11.7-43c0-19.6-5.7-34.5-17-44.7s-28.3-15.3-51-15.3c-2.1,0-4.9,0.1-8.5,0.2c-3.6,0.1-8,0.3-13.4,0.5
		c-5.3,0.2-9.7,0.4-13.4,0.6c-3.7,0.2-6.7,0.3-9.1,0.3c-12.1,0-24.5-0.2-37.2-0.7l0.3,7.7l18.3,6.9c2.3,1,3.4,3,3.5,6.1
		c0.1,3.9,0.2,8.3,0.2,13.2c0,4.9,0.1,10.3,0.1,16.4v144.3c0,7.1,0,13.6-0.1,19.5c-0.1,5.9-0.1,11.2-0.2,15.9
		c-0.2,2.8-1.5,4.7-4,5.5l-18.1,6.6l0.6,7.7c12.5-0.4,24.7-0.5,36.6-0.5c11.7,0,23.4,0.2,35.1,0.5l-0.4-7.7l-16.4-5.9
		c-2.5-0.9-3.7-3.3-3.8-6.9c-0.1-4.6-0.2-9.8-0.2-15.5c-0.1-5.7-0.1-12.1-0.1-19.2v-61.7l10.3,0.4c2.6,0.1,4.7,0.4,6.4,0.7
		c1.6,0.4,3.1,1,4.3,2s2.4,2.3,3.4,3.9c1,1.7,2.3,3.9,3.8,6.8c5.1,9.5,9.9,19.2,14.5,29.1s9,19.2,13.2,28
		c4.2,8.8,8.3,16.6,12.3,23.6c3.9,6.9,8,12.3,12,15.9c1.9,1.8,3.8,3.2,5.8,4.4c1.9,1.1,4.1,2,6.5,2.8c2.4,0.7,5.1,1.2,8.2,1.4
		c3.1,0.2,6.6,0.4,10.6,0.4c4.8,0,10.8-0.5,17.9-1.6l-0.4-7.8C978.6,421.5,976.4,420.7,974.4,420z M868.9,299.6
		c-5.1,0-10.7-0.2-16.7-0.5V195c3.6-0.5,7-0.8,10.2-1.1c3.1-0.2,6.1-0.4,8.9-0.4c16.1,0,28,4.2,35.6,12.5s11.4,21.5,11.4,39.5
		c0,18.6-4,32.3-11.9,41C898.4,295.2,886,299.6,868.9,299.6z"/>
	<path class="st0" d="M1043.1,213c0-4.9,0.1-9.5,0.2-13.6c0.2-3,1.5-4.8,3.8-5.5l18.3-6.6l-0.6-7.7c-12.6,0.5-24.8,0.7-36.6,0.7
		c-11.7,0-23.9-0.2-36.6-0.7l0.3,7.7l18.3,6.9c2.3,1,3.4,3,3.5,6.1c0.1,3.9,0.2,8.3,0.2,13.2c0,4.9,0.1,10.3,0.1,16.4v144.3
		c0,7.1,0,13.6-0.1,19.5c-0.1,5.9-0.1,11.2-0.2,15.9c-0.2,2.8-1.5,4.7-4,5.5l-18.1,6.6l0.6,7.7c12.5-0.4,24.7-0.5,36.6-0.5
		c11.7,0,23.9,0.2,36.6,0.5l-0.3-7.7l-16.7-6.2c-3.3-1.1-5.1-3.1-5.2-6c-0.1-4.7-0.2-10-0.2-15.8c-0.1-5.8-0.1-12.3-0.1-19.4v-145
		C1043,223.3,1043.1,217.9,1043.1,213z"/>
	<path class="st0" d="M1193.1,180.3h-39.4c-22.1,0-45.3-0.2-69.5-0.7l-1,1.4l3.8,63.7l5.9-1.2l13.1-47.3h52.1v177.6
		c0,14-0.1,25.5-0.3,34.5c-0.1,2.8-1.4,4.7-3.8,5.5l-21.8,7.8l0.6,7.7c14.7-0.4,28-0.5,40.1-0.5c11.7,0,25.2,0.2,40.4,0.5l-0.3-7.7
		l-21.8-7.8c-2.5-0.8-3.7-2.7-3.8-5.5c-0.2-9-0.3-20.5-0.3-34.5V196.2h52.1l9.4,48.6l5.9-1.2l9.3-62.5l-0.9-1.4
		C1238.4,180.1,1215.1,180.3,1193.1,180.3z"/>
	<path class="st0" d="M1460.9,179.6c-10.1,0.5-20.6,0.7-31.3,0.7c-11.1,0-22-0.2-32.6-0.7l0.3,8.2l13.3,4.3c4.3,1.4,6.5,4,6.5,7.7
		c0,2.6-0.8,5.9-2.5,10c-1.7,4-3.7,8.9-6.2,14.6l-34.1,77.8l-39.1-81.7c-2.3-4.7-4.2-8.9-5.7-12.5s-2.3-6.7-2.3-9.2
		c0-1.7,0.4-3.1,1.3-4.2c0.9-1.1,2.4-2,4.4-2.6l13.9-4.6l-0.6-7.7c-14.2,0.5-27.9,0.7-41.2,0.7c-15.2,0-27.3-0.2-36.3-0.7l0.3,7.7
		l13.4,5c3.8,1.3,6.9,3.6,9.2,6.8s5.3,8.4,8.9,15.7l51.9,108.5v50.4c0,7.1,0,13.6-0.1,19.5c-0.1,5.9-0.1,11.2-0.2,15.9
		c-0.2,2.8-1.5,4.7-4,5.5l-19.8,7.1l0.6,7.7c13.6-0.4,26.3-0.5,38.3-0.5c11.7,0,24.4,0.2,38.1,0.5l-0.3-7.7l-18.3-6.8
		c-3.3-1.1-5.1-3.1-5.2-6c-0.1-4.7-0.2-10-0.2-15.8c-0.1-5.8-0.1-12.3-0.1-19.4v-54.1l51-109.8c2-4.2,3.9-7.7,5.8-10.5
		s4.6-4.9,8.2-6.2l14.9-5.7L1460.9,179.6z"/>
</g>
</svg>
